<?xml version="1.0" standalone="no"?>
<!DOCTYPE svg PUBLIC "-//W3C//DTD SVG 20010904//EN"
 "http://www.w3.org/TR/2001/REC-SVG-20010904/DTD/svg10.dtd">
<svg version="1.0" xmlns="http://www.w3.org/2000/svg"
 width="1720.000000pt" height="1720.000000pt" viewBox="0 0 1720.000000 1720.000000"
 preserveAspectRatio="xMidYMid meet">

<g transform="translate(0.000000,1720.000000) scale(0.100000,-0.100000)"
fill="#000000" stroke="none">
<path d="M4648 13246 c-122 -26 -252 -120 -306 -221 -51 -96 -124 -308 -151
-440 -32 -151 -35 -235 -18 -525 8 -146 14 -285 14 -310 -2 -128 16 -623 24
-675 6 -33 14 -85 18 -115 10 -65 63 -276 94 -375 19 -61 21 -90 20 -225 -2
-96 3 -194 13 -258 8 -58 14 -161 13 -235 -1 -79 3 -143 10 -160 17 -44 39
-163 46 -257 3 -47 11 -112 17 -145 15 -82 11 -129 -14 -170 -13 -23 -19 -46
-16 -66 3 -16 1 -32 -4 -35 -13 -8 -9 -31 8 -49 13 -13 14 -16 3 -15 -42 6
-50 0 -47 -32 3 -29 9 -34 63 -55 32 -13 72 -23 88 -23 15 0 36 -4 45 -9 9 -5
33 -11 52 -14 44 -6 70 -17 70 -28 0 -5 10 -9 23 -9 44 -1 78 -56 47 -75 -13
-8 -42 14 -34 26 6 11 -46 12 -63 1 -7 -4 -10 -16 -8 -27 2 -11 4 -23 4 -27 1
-5 15 -8 31 -8 31 0 41 -14 17 -23 -7 -3 -25 -3 -40 0 -46 9 -82 -42 -38 -54
28 -7 34 -31 11 -45 -24 -15 -26 -28 -5 -28 8 0 15 -7 15 -16 0 -13 -8 -14
-47 -8 -56 7 -50 -8 10 -28 l37 -13 -29 -11 c-23 -9 -36 -8 -60 4 -37 17 -47
12 -31 -17 16 -32 4 -41 -53 -41 -60 0 -97 -8 -97 -21 0 -5 4 -9 9 -9 5 0 26
-8 47 -17 22 -10 45 -18 53 -18 8 0 15 -8 17 -18 3 -19 -12 -24 -18 -5 -3 9
-6 9 -11 1 -4 -6 0 -19 9 -27 9 -9 14 -23 11 -30 -3 -7 0 -19 6 -25 8 -8 0
-11 -32 -11 -48 0 -47 -15 1 -28 43 -11 46 -29 6 -37 -70 -14 -72 -15 -51 -30
10 -7 28 -15 38 -17 11 -1 25 -8 30 -15 6 -6 21 -14 35 -16 25 -4 25 -4 3 -12
-31 -10 -29 -25 2 -25 14 0 25 -5 25 -10 0 -7 -13 -9 -32 -5 -18 3 -51 7 -73
10 -50 6 -115 20 -137 30 -13 5 -18 3 -18 -8 0 -22 10 -26 74 -31 31 -2 59 -6
62 -9 7 -7 -34 -20 -44 -13 -4 2 -27 -4 -51 -15 -24 -10 -49 -19 -57 -19 -21
0 -17 -28 5 -40 11 -5 26 -7 35 -4 8 3 24 -4 35 -15 15 -15 34 -21 66 -21 26
0 45 -5 45 -11 0 -6 -9 -9 -20 -6 -11 3 -22 2 -25 -3 -6 -9 46 -35 90 -46 17
-4 35 -10 40 -14 6 -4 44 -19 85 -33 41 -14 86 -29 100 -35 38 -16 416 -135
575 -182 146 -43 295 -90 380 -120 90 -32 469 -181 536 -211 36 -16 99 -40
139 -54 40 -14 78 -29 84 -33 6 -5 34 -15 61 -22 28 -7 62 -22 77 -32 14 -10
31 -18 37 -18 6 0 31 -14 56 -32 47 -33 74 -32 37 2 -35 33 -28 43 28 35 28
-4 50 -4 50 0 0 16 -31 35 -61 38 -43 3 -51 27 -10 27 17 0 31 5 31 10 0 6 -6
10 -13 10 -8 0 -22 9 -32 20 -10 11 -27 22 -38 26 -12 4 -37 22 -57 41 -38 37
-191 123 -255 143 -22 7 -34 15 -28 17 20 7 78 -15 208 -77 139 -67 196 -86
282 -95 54 -5 62 -4 57 10 -5 12 2 15 35 15 l42 0 -149 178 c-198 238 -288
358 -356 477 -16 28 -63 84 -105 125 -84 82 -124 131 -163 200 -31 53 -60 157
-47 166 5 3 5 12 0 22 -7 14 -8 67 -1 67 1 0 4 22 6 49 3 33 13 59 29 78 14
16 28 40 31 52 4 18 11 22 29 18 14 -2 36 4 52 15 36 24 84 45 90 39 3 -3 16
-1 29 4 19 8 28 6 41 -10 21 -24 25 -52 10 -62 -8 -5 -6 -8 6 -8 10 0 17 7 17
18 0 12 2 14 8 4 5 -7 23 -12 40 -10 24 2 29 5 20 15 -13 17 4 17 22 1 12 -11
12 -10 0 5 -9 12 -22 17 -37 14 -27 -5 -39 8 -24 27 6 7 7 17 3 22 -4 5 3 1
14 -9 12 -10 25 -17 30 -16 5 1 16 1 24 0 13 -1 13 -2 0 -11 -16 -10 -12 -12
33 -15 15 -1 27 2 27 8 0 5 6 7 14 4 8 -3 17 1 20 10 4 9 9 13 13 10 3 -4 13
-1 21 6 13 9 14 9 8 0 -4 -7 -3 -13 3 -13 5 0 13 5 17 11 8 14 24 -8 24 -35 0
-11 7 -27 16 -37 14 -16 14 -18 -5 -29 -12 -6 -21 -16 -21 -23 0 -8 4 -7 10 3
7 12 9 10 8 -6 -2 -19 -8 -21 -47 -20 l-46 1 3 -37 c3 -28 0 -38 -11 -38 -8 0
-20 -7 -27 -15 -9 -11 -7 -19 12 -38 32 -31 37 -99 10 -125 -21 -19 -35 -24
-72 -26 -28 -1 -40 -12 -40 -40 0 -12 5 -16 14 -13 8 3 17 -1 20 -9 4 -10 13
-13 29 -9 15 4 28 1 36 -9 8 -9 29 -16 47 -16 34 0 37 -4 46 -65 4 -26 95 -75
106 -58 6 9 25 11 63 8 52 -5 56 -4 67 20 11 25 13 25 37 9 23 -15 25 -15 25
1 0 10 -10 26 -22 36 -11 11 -16 19 -10 19 7 0 12 7 12 15 0 9 6 15 13 14 32
-4 54 2 54 16 0 8 -4 15 -9 15 -5 0 -7 4 -3 10 3 6 15 5 30 -2 23 -10 23 -12
7 -24 -15 -12 -15 -13 6 -9 17 3 22 -1 22 -16 0 -11 -4 -18 -9 -14 -10 6 -24
-11 -27 -32 -1 -7 2 -13 7 -13 6 0 9 8 7 18 -2 13 4 17 32 17 19 0 40 3 46 7
6 4 23 1 37 -7 27 -14 30 -15 43 -15 11 0 -20 -32 -37 -39 -12 -4 -14 -12 -8
-26 7 -18 8 -18 8 -2 1 11 6 15 13 11 6 -4 8 -3 4 4 -3 6 -2 13 4 17 5 3 10
-2 10 -12 0 -15 2 -16 10 -3 8 12 11 13 19 1 6 -9 11 -10 15 -2 4 6 3 11 -3
11 -5 0 -8 11 -5 23 2 16 -1 24 -11 25 -8 1 -22 3 -30 4 -9 1 -18 13 -21 27
-3 14 -14 47 -25 73 -10 26 -19 54 -19 63 0 9 -5 13 -10 10 -6 -4 -7 -11 -4
-17 4 -6 2 -8 -4 -5 -12 8 -10 19 7 61 6 16 9 36 7 43 -3 8 1 30 9 48 l14 35
30 -18 c16 -9 35 -26 40 -37 6 -11 20 -31 31 -45 11 -14 23 -50 28 -80 5 -34
13 -54 20 -53 7 2 13 -2 13 -7 1 -6 2 -14 3 -19 0 -5 5 -13 10 -18 5 -4 6 -3
2 4 -3 6 -2 14 3 18 5 3 8 15 6 26 -3 16 0 19 13 14 14 -5 14 -4 5 6 -10 10
-9 16 4 31 23 26 53 23 53 -4 0 -16 -3 -19 -8 -10 -11 17 -42 4 -35 -14 3 -8
8 -13 10 -10 3 3 17 -6 31 -19 21 -20 23 -26 13 -39 -7 -9 -18 -13 -25 -9 -6
3 0 -4 13 -17 19 -19 22 -29 17 -59 -3 -20 -6 -44 -6 -53 0 -11 -8 -18 -20
-18 -14 0 -20 -6 -18 -16 2 -9 -5 -21 -16 -28 -10 -6 -32 -23 -48 -39 -21 -19
-37 -26 -50 -21 -13 4 -26 -1 -39 -15 -11 -12 -25 -19 -30 -15 -5 3 -16 0 -24
-6 -8 -7 -21 -10 -29 -7 -8 3 -17 -1 -20 -9 -3 -8 -18 -14 -35 -14 -16 0 -33
-5 -36 -10 -4 -6 -11 -8 -16 -4 -6 3 -20 -3 -32 -13 -12 -11 -49 -26 -82 -33
-33 -8 -69 -20 -80 -27 -24 -16 -59 -17 -87 -2 -15 8 -26 8 -44 -1 -13 -8 -34
-10 -51 -6 -15 4 -44 10 -63 13 -42 6 -140 50 -140 62 0 5 -14 14 -31 20 l-30
10 22 -37 c109 -179 301 -419 450 -564 32 -32 59 -61 59 -65 0 -10 62 -53 76
-53 5 0 15 9 22 20 12 19 14 19 42 5 25 -13 30 -13 30 -1 0 7 -7 19 -15 26 -8
7 -12 16 -9 22 3 5 12 4 20 -3 7 -6 12 -15 9 -19 -3 -4 2 -11 11 -14 21 -8 21
-9 20 17 -1 16 5 22 19 22 36 0 38 23 5 81 -38 67 -54 108 -40 99 6 -3 10 -12
10 -18 0 -7 8 -20 18 -29 26 -24 69 -74 78 -91 12 -21 38 -25 39 -7 0 9 12 16
30 18 17 2 34 8 39 13 6 5 20 9 32 9 17 0 21 4 17 20 -7 27 14 26 45 -2 14
-13 22 -17 18 -10 -9 15 -1 15 24 2 17 -9 18 -7 10 20 l-9 30 29 -15 c16 -8
37 -15 46 -15 13 0 14 3 4 15 -17 20 -7 19 38 -5 29 -16 39 -18 47 -8 6 7 37
14 70 16 33 2 62 5 64 8 2 2 -4 13 -14 24 -15 16 -16 22 -5 36 11 13 11 17 1
24 -10 6 -8 10 8 15 11 3 21 10 21 15 0 5 9 12 21 15 19 6 19 8 5 24 -20 22
-20 31 -1 31 9 0 15 9 15 25 0 25 18 33 36 16 5 -5 20 -12 32 -16 21 -6 23 -4
17 15 -6 19 -4 21 15 15 19 -6 21 -4 15 17 -4 12 -4 20 0 16 13 -12 37 30 30
52 -4 11 -11 20 -16 20 -5 0 -9 7 -9 15 0 21 9 19 29 -7 21 -25 51 -19 51 12
0 17 4 19 25 14 20 -5 27 -1 37 22 11 28 12 28 15 7 3 -13 8 -23 12 -23 10 0
101 100 101 111 0 5 4 9 10 9 5 0 13 11 16 26 5 18 1 29 -12 38 -16 12 -20 11
-29 -7 -5 -11 -16 -22 -23 -25 -20 -6 -6 88 17 113 11 11 28 36 40 55 20 34
21 34 21 9 0 -34 7 -40 36 -27 15 7 24 20 24 34 0 34 58 122 66 101 4 -13 9
-14 19 -4 9 9 10 17 3 31 -15 27 -3 135 16 154 21 21 21 8 -1 -68 -13 -50 -14
-64 -4 -84 7 -13 10 -33 6 -45 -3 -11 -4 -21 -1 -21 10 0 37 61 32 73 -3 9 -5
9 -5 0 -1 -7 -5 -13 -11 -13 -13 0 -5 67 14 124 24 71 35 126 26 131 -5 3 -11
-1 -13 -7 -3 -7 -3 5 0 26 4 26 3 37 -4 33 -8 -5 -8 6 -2 33 5 22 8 51 6 63
-2 12 -2 16 0 8 6 -17 52 88 63 144 5 23 5 41 -1 43 -11 4 18 62 31 62 8 0 16
14 44 80 4 8 20 40 35 70 16 30 26 59 24 63 -3 5 -12 -4 -20 -20 -21 -41 -37
-54 -29 -23 l7 25 -22 -25 c-12 -14 -26 -32 -33 -41 -6 -9 -22 -20 -36 -24
-26 -8 -27 -10 76 117 12 15 37 67 55 115 l33 87 9 -35 9 -34 14 30 c7 17 21
56 30 88 17 56 18 58 30 35 11 -19 13 -20 14 -5 0 10 16 50 35 88 19 39 35 85
35 103 0 19 7 47 15 62 8 16 15 40 14 54 l-1 25 -7 -25 c-13 -42 -44 -96 -48
-83 -2 6 5 34 17 61 32 75 21 100 -14 32 -16 -30 -48 -86 -71 -125 -42 -70
-58 -110 -69 -172 -7 -43 -1 -42 20 2 20 44 31 38 14 -7 -7 -18 -16 -53 -20
-78 -7 -45 -7 -45 -9 -8 -1 41 -16 59 -24 29 -2 -11 -14 -24 -25 -30 -21 -11
-21 -11 -7 30 18 51 19 48 -5 42 -26 -7 -26 -4 15 77 28 55 100 230 128 310 4
11 6 11 6 -3 1 -10 -3 -26 -8 -35 -5 -9 -18 -51 -30 -92 -20 -74 -20 -75 0
-50 11 14 29 41 40 60 11 19 31 53 44 75 13 22 31 54 39 71 22 46 60 103 69
104 4 0 7 -11 7 -24 0 -34 20 -87 31 -80 12 7 12 4 -6 -46 -17 -49 -20 -94 -5
-85 14 9 13 -13 -4 -71 -17 -56 -24 -109 -31 -206 -3 -51 0 -69 11 -79 20 -17
37 7 23 32 -13 25 -11 59 4 56 8 -1 13 12 14 38 5 77 25 205 34 211 5 3 9 -2
9 -11 0 -9 5 -13 10 -10 6 3 10 16 10 27 0 28 14 14 15 -15 1 -12 3 -49 4 -82
2 -33 5 -51 8 -40 2 11 10 34 17 50 19 41 36 98 36 117 0 9 7 22 16 29 13 11
15 27 12 81 -3 37 -1 65 3 62 5 -3 10 30 11 73 1 75 1 76 7 23 5 -41 8 -50 14
-35 7 16 10 17 17 5 8 -12 10 -9 11 10 0 21 2 22 8 7 4 -10 27 -29 51 -41 30
-15 46 -31 51 -49 5 -20 4 -27 -7 -27 -10 0 -14 -13 -14 -46 0 -25 4 -43 9
-40 5 4 12 -13 16 -36 5 -28 4 -43 -4 -46 -6 -2 -11 -20 -11 -40 -1 -20 -5
-57 -10 -82 -6 -32 -4 -56 5 -85 11 -30 12 -56 5 -105 -5 -36 -10 -71 -10 -77
0 -22 18 -14 26 10 4 12 14 33 23 47 22 33 41 90 41 123 0 18 4 26 11 21 10
-6 10 -20 -7 -139 -6 -38 -5 -39 10 -20 16 19 16 17 13 -35 -2 -30 -16 -95
-30 -145 -15 -49 -27 -108 -27 -130 0 -22 -7 -51 -15 -65 -16 -28 -20 -70 -6
-70 19 0 51 69 67 141 19 82 22 89 33 71 4 -7 12 26 19 75 13 99 32 134 32 59
0 -29 4 -45 10 -41 6 4 10 -8 10 -29 0 -19 -5 -38 -10 -41 -7 -4 -3 -19 10
-42 16 -28 19 -42 12 -63 -6 -15 -8 -39 -5 -53 9 -46 -6 -97 -30 -106 -17 -7
-25 -23 -35 -67 -17 -77 -39 -176 -56 -244 -13 -51 -14 -53 -24 -30 -10 25
-10 25 -15 -10 -3 -19 -8 -57 -12 -85 -3 -28 -12 -55 -21 -62 -14 -10 -16 -25
-15 -118 0 -32 -35 -115 -49 -115 -13 0 -23 -83 -15 -119 6 -27 8 -29 21 -17
8 8 14 24 14 34 0 28 10 52 22 52 6 0 6 -28 2 -72 -6 -66 -6 -72 9 -60 13 11
19 11 30 1 16 -15 11 -50 -9 -62 -8 -5 -11 -19 -7 -43 4 -27 2 -39 -9 -45 -10
-5 -13 -18 -10 -39 5 -38 22 -50 22 -16 0 13 5 37 11 53 8 22 12 24 19 13 8
-13 10 -12 10 3 0 9 -4 17 -10 17 -5 0 -10 7 -10 15 0 20 22 65 32 65 10 0 11
-104 1 -114 -10 -10 -10 -66 -1 -66 4 0 10 4 13 10 3 6 10 10 16 10 15 0 10
-26 -7 -41 -23 -19 -10 -70 29 -113 19 -20 39 -36 46 -36 9 0 11 -11 6 -41 -5
-29 -4 -40 4 -35 6 4 11 0 11 -8 0 -9 7 -16 16 -16 8 0 13 -4 9 -9 -11 -19 17
-23 36 -5 10 9 19 12 19 6 0 -6 -7 -15 -17 -20 -17 -10 -28 -62 -12 -62 5 0 9
-6 9 -13 0 -8 12 -19 26 -26 25 -11 25 -13 9 -25 -16 -12 -16 -13 -1 -19 12
-5 15 -13 10 -31 -7 -29 33 -76 65 -76 22 0 40 -20 19 -21 -7 0 1 -7 17 -14
17 -7 54 -35 84 -62 49 -44 52 -50 38 -64 -25 -26 -4 -42 57 -44 38 -2 63 -8
76 -20 21 -19 28 -41 8 -29 -6 4 -8 3 -4 -4 12 -20 63 -39 93 -35 36 6 56 -15
24 -24 -42 -11 -20 -22 39 -21 35 1 65 -3 72 -10 7 -7 31 -9 68 -5 38 4 60 2
64 -6 5 -7 -2 -12 -16 -12 -13 -1 -30 -3 -38 -4 -8 -1 -23 -3 -34 -4 -15 -1
-16 -4 -6 -16 7 -8 21 -15 31 -15 11 0 19 -6 19 -14 0 -39 48 -25 170 49 30
18 57 32 58 30 6 -6 -54 -65 -65 -65 -16 0 -35 -27 -25 -34 5 -3 33 -6 61 -7
29 -1 54 -6 57 -11 3 -4 22 -8 42 -8 64 0 70 -17 8 -24 -31 -4 -58 -12 -61
-17 -4 -5 -17 -9 -31 -9 -22 0 -74 -38 -56 -41 57 -10 106 -3 95 13 -10 17
153 -1 219 -23 76 -25 142 -24 268 7 58 13 160 29 227 33 121 9 131 12 248 66
17 8 72 26 124 41 165 46 498 193 459 202 -10 2 -18 7 -18 11 0 14 52 32 73
25 17 -5 19 -3 13 21 -4 15 -16 39 -27 54 -16 22 -19 36 -14 64 5 24 13 37 23
37 13 0 13 2 -1 18 -10 10 -17 25 -17 33 0 8 -5 20 -11 26 -8 8 -6 19 5 42 13
24 14 36 6 51 -6 11 -9 24 -6 29 3 5 -8 22 -24 40 -17 17 -30 40 -30 52 0 11
-5 30 -11 41 -10 19 -9 20 12 14 85 -26 94 -13 16 24 -28 14 -51 30 -50 37 1
6 -12 17 -30 24 -30 11 -31 12 -9 16 l24 5 -23 24 c-12 13 -32 24 -43 25 -19
1 -18 2 3 8 l24 7 -27 17 c-15 10 -25 24 -23 30 3 7 -9 27 -27 45 -26 28 -28
34 -16 43 8 5 26 8 39 7 20 -2 26 3 32 27 9 33 -6 57 -53 81 -38 20 -35 30 9
39 50 9 56 14 41 32 -7 9 -12 19 -10 22 1 3 -2 7 -8 7 -5 1 -14 2 -19 3 -4 0
-6 12 -4 25 4 19 -1 28 -24 40 -16 8 -38 13 -49 12 -24 -4 -44 11 -38 28 3 7
-6 21 -20 30 -15 9 -26 25 -26 36 0 10 -8 25 -17 32 -17 12 -43 51 -43 63 0 3
16 5 36 5 27 0 43 7 62 27 23 25 24 27 6 34 -11 5 -50 6 -89 4 -40 -3 -59 -1
-46 3 14 4 26 13 28 19 6 17 -50 44 -67 33 -16 -10 -30 -4 -30 11 0 6 8 8 19
4 10 -3 24 1 31 10 7 8 17 15 23 15 22 0 87 34 87 46 0 8 -20 15 -47 19 -27 4
-60 10 -75 15 -15 5 -36 6 -47 3 -15 -4 -21 -1 -21 10 0 10 -11 17 -32 19 -29
3 -33 6 -31 30 1 19 -4 28 -19 31 -21 6 -16 27 6 27 8 0 16 9 19 21 3 12 10
19 14 16 5 -3 15 -2 23 4 12 7 11 9 -6 9 -12 0 -27 7 -35 16 -10 12 -23 14
-55 9 -37 -5 -43 -3 -49 15 -3 11 -11 17 -17 14 -5 -4 -2 5 7 20 10 15 16 29
13 31 -2 2 -26 -2 -53 -10 -47 -15 -73 -12 -47 4 9 6 6 14 -14 34 -18 18 -24
32 -19 46 3 12 11 21 16 21 5 0 9 6 9 14 0 9 -7 12 -21 9 -15 -4 -22 0 -26 16
-5 20 -7 21 -23 6 -17 -15 -19 -15 -28 1 -5 9 -21 17 -35 17 -17 0 -24 4 -20
13 8 22 -6 64 -21 64 -11 0 -12 8 -5 38 13 54 12 55 -26 49 -34 -6 -35 -5 -35
29 0 31 -2 34 -18 25 -14 -7 -23 -5 -35 10 -20 23 -37 25 -37 4 0 -8 -5 -15
-11 -15 -7 0 -9 8 -3 23 4 12 8 49 8 82 1 33 5 63 11 67 6 5 2 8 -8 8 -9 0
-23 -12 -29 -26 -11 -23 -13 -24 -24 -9 -8 10 -14 12 -19 5 -11 -18 -25 0 -19
25 7 29 -12 42 -34 22 -9 -8 -22 -13 -28 -10 -7 2 -21 -9 -33 -24 -34 -45 -41
-53 -51 -53 -5 0 -7 6 -4 14 3 7 -2 16 -11 20 -9 3 -13 2 -10 -4 3 -6 2 -10
-4 -10 -6 0 -57 -48 -113 -107 -142 -147 -158 -163 -164 -163 -3 0 -2 6 2 13
10 16 205 249 220 262 22 20 55 75 45 75 -6 0 -11 5 -11 11 0 7 -8 18 -17 25
-15 10 -21 10 -35 -3 -10 -9 -18 -22 -18 -28 0 -19 -30 -27 -36 -10 -8 19 31
81 62 102 13 8 24 22 24 29 0 13 -8 15 -65 18 -17 1 -20 8 -20 49 0 26 -2 47
-4 47 -2 0 -10 -8 -18 -17 -13 -16 -14 -14 -9 21 5 38 5 38 -15 20 -12 -11
-23 -18 -26 -16 -3 2 -17 -21 -32 -49 -39 -79 -45 -89 -53 -89 -5 0 -8 -7 -8
-15 0 -9 -7 -18 -15 -21 -8 -4 -15 -12 -15 -19 0 -8 -4 -17 -10 -20 -6 -4 -10
12 -10 42 0 33 3 44 10 33 5 -8 10 -12 12 -10 2 3 12 23 23 44 11 22 25 45 31
51 18 18 54 92 54 112 0 13 -3 14 -12 5 -16 -16 -33 -15 -20 1 6 7 7 18 2 26
-6 10 -12 6 -25 -18 -12 -24 -13 -36 -5 -46 12 -15 3 -68 -11 -59 -5 3 -9 1
-9 -5 0 -28 -20 -60 -35 -55 -8 3 -15 12 -15 20 0 8 -5 14 -11 14 -6 0 -8 9
-4 21 5 15 4 19 -4 15 -7 -5 -9 -22 -5 -45 4 -24 2 -41 -5 -45 -7 -5 -11 2
-11 17 0 25 -22 52 -33 40 -4 -3 -7 6 -7 20 0 39 -18 33 -26 -9 -4 -19 -13
-38 -20 -41 -8 -3 -14 -9 -14 -15 0 -5 -11 -34 -25 -64 -14 -31 -27 -63 -29
-72 -10 -46 -19 -63 -26 -52 -4 7 -13 -4 -23 -28 -9 -22 -22 -44 -28 -48 -9
-5 -10 -2 -4 12 4 10 9 42 11 69 l4 50 -15 -44 c-16 -48 -35 -75 -35 -50 0 8
18 73 41 144 22 72 47 153 55 180 7 28 17 61 20 74 5 16 2 28 -7 35 -13 11
-69 91 -69 100 0 12 39 -8 44 -22 13 -35 37 -72 47 -72 12 0 1 42 -13 51 -6 4
-8 15 -4 25 3 12 -6 34 -24 59 -17 22 -35 52 -41 68 -14 34 -27 35 -31 0 -4
-32 -28 -44 -28 -14 0 13 -5 19 -14 15 -9 -4 -18 7 -26 31 -7 20 -18 39 -26
42 -8 3 -14 19 -14 35 0 19 -4 28 -12 25 -8 -2 -12 -17 -10 -38 3 -24 0 -31
-7 -24 -6 6 -11 26 -12 45 -1 19 -12 51 -25 70 -12 19 -25 50 -29 68 -4 17
-11 32 -16 32 -13 0 -11 -20 6 -87 24 -91 19 -101 -34 -62 -19 14 -27 27 -24
40 3 11 0 19 -7 19 -8 0 -11 9 -7 26 3 18 -2 33 -17 48 l-21 21 -5 -35 -5 -35
-22 25 c-21 22 -23 22 -23 4 -1 -19 -1 -19 -16 1 -24 33 -86 95 -95 95 -4 0
-11 -9 -14 -20 -3 -11 -11 -20 -16 -20 -6 0 -8 4 -5 9 3 5 -1 12 -10 15 -22 9
-24 8 -24 -9 0 -14 -4 -14 -35 -1 -31 13 -36 13 -43 -1 -7 -12 -14 -6 -31 30
-13 28 -33 51 -50 58 -15 7 -35 29 -45 51 -11 21 -24 38 -29 38 -6 0 -19 7
-29 17 -17 15 -19 15 -38 -2 -12 -10 -18 -25 -16 -32 6 -16 -10 -27 -19 -12
-4 5 -13 8 -20 5 -8 -3 -11 2 -8 15 3 10 0 19 -6 19 -6 0 -11 -6 -11 -14 0 -8
-8 -22 -17 -32 -9 -9 -19 -26 -20 -37 -5 -33 -12 -33 -24 2 -8 23 -19 34 -40
38 -15 3 -30 11 -33 19 -13 33 -58 -1 -68 -51 -2 -11 -10 -20 -18 -20 -8 0
-21 -4 -28 -9 -9 -5 -19 -1 -28 13 -8 12 -24 21 -34 21 -13 0 -22 9 -26 25 -3
14 -15 30 -25 35 -11 7 -16 17 -13 28 5 15 4 15 -9 -1 -14 -17 -16 -17 -30 3
-19 27 -42 17 -57 -23 -11 -31 -12 -31 -26 -13 -7 11 -14 30 -14 43 0 18 -5
22 -22 20 -15 -1 -23 4 -26 18 -3 11 -15 30 -28 42 l-24 22 0 -23 c0 -21 -30
-60 -30 -40 -1 23 -20 -24 -20 -48 0 -35 -19 -46 -37 -22 -8 10 -16 18 -18 17
-22 -13 -31 3 -15 27 9 13 11 13 20 0 7 -12 10 -8 10 15 0 27 -3 31 -26 30
-17 0 -30 -7 -35 -20 -7 -19 -8 -19 -8 2 -1 14 -12 28 -29 37 -26 13 -31 13
-55 -3 -15 -10 -34 -26 -42 -37 -13 -17 -14 -17 -15 -1 0 22 -6 22 -38 -4
l-27 -21 -5 29 -6 28 -31 -32 c-36 -38 -43 -40 -43 -14 0 27 -28 34 -40 11 -6
-11 -17 -20 -25 -20 -7 0 -16 -9 -20 -19 -3 -11 -12 -22 -20 -25 -17 -6 -42
-61 -89 -196 -51 -148 -86 -332 -90 -468 -2 -62 -6 -115 -9 -118 -3 -4 -9 18
-13 47 -6 42 -9 49 -16 34 -6 -15 -7 -12 -3 10 3 17 10 122 15 235 11 240 19
368 27 394 4 15 2 18 -12 12 -14 -5 -16 -2 -12 14 10 39 -27 18 -43 -25 -12
-32 -15 -42 -30 -115 -5 -25 -13 -57 -19 -71 -5 -15 -7 -29 -5 -32 3 -3 0 -33
-6 -67 -12 -66 -15 -291 -6 -438 4 -80 4 -82 -5 -27 -11 74 -14 425 -4 523 4
46 3 72 -3 72 -20 0 -22 33 -3 54 10 12 22 32 26 46 3 14 9 33 11 43 3 9 1 17
-5 17 -16 0 -51 -42 -44 -53 4 -6 0 -8 -10 -4 -12 5 -17 1 -17 -12 0 -21 -23
-44 -34 -34 -4 4 -4 0 0 -10 5 -13 2 -16 -10 -11 -10 4 -15 13 -12 21 3 8 6
19 6 24 0 5 6 9 14 9 15 0 26 21 26 51 0 25 -12 24 -43 -5 -26 -24 -26 -25
-22 -153 9 -239 12 -591 5 -603 -8 -12 -20 145 -20 258 0 56 -3 71 -12 66 -10
-6 -10 -4 0 8 10 12 11 44 7 125 -9 179 -16 238 -26 222 -5 -8 -9 -25 -9 -39
0 -18 -3 -21 -9 -11 -5 7 -14 10 -20 7 -7 -5 -11 2 -11 18 0 15 8 30 20 36 11
6 20 17 20 25 0 7 5 15 11 17 8 3 9 15 4 36 -8 36 -25 34 -25 -4 0 -14 -7 -27
-15 -30 -8 -4 -13 -10 -10 -14 8 -13 -31 -54 -43 -46 -7 4 -12 27 -12 52 0 24
-4 44 -10 44 -5 0 -10 -19 -10 -43 0 -24 -6 -49 -12 -55 -10 -10 -10 -14 0
-21 10 -6 10 -10 -2 -20 -12 -10 -17 -9 -25 7 -6 11 -8 22 -4 25 3 4 -5 15
-17 25 -21 17 -22 22 -12 51 11 32 9 51 -7 51 -4 0 -13 -24 -20 -52 -8 -29
-19 -60 -26 -68 -22 -28 -37 -78 -30 -102 11 -36 54 -150 70 -183 44 -95 155
-468 143 -481 -3 -2 -17 38 -33 89 -16 50 -39 112 -51 137 -12 25 -27 66 -34
90 -7 25 -37 109 -68 188 -47 118 -60 142 -74 139 -14 -4 -16 -1 -9 12 6 11 4
23 -5 36 -13 18 -14 17 -14 -13 0 -18 -4 -32 -10 -32 -5 0 -10 7 -10 15 0 8
-6 12 -14 9 -10 -4 -18 6 -25 33 -6 21 -11 43 -11 49 0 6 -6 17 -14 23 -17 15
-29 -10 -20 -44 3 -13 2 -34 -2 -47 -7 -22 -8 -21 -21 12 l-13 35 4 -41 c2
-23 0 -48 -5 -55 -6 -10 -9 -8 -9 9 0 12 -4 22 -10 22 -5 0 -10 9 -10 21 0 11
-5 30 -11 41 -10 18 -14 14 -45 -48 -35 -73 -40 -89 -24 -79 6 3 10 2 10 -3 0
-6 -7 -12 -15 -16 -16 -6 -18 4 -15 87 1 26 -3 47 -8 47 -12 0 -36 -95 -27
-109 3 -6 0 -21 -6 -33 -12 -22 -13 -20 -25 27 -8 36 -12 42 -13 23 0 -16 -6
-28 -12 -28 -5 0 -8 -4 -4 -9 3 -5 -2 -16 -10 -24 -29 -30 -7 -87 29 -74 16 6
32 -23 17 -32 -5 -3 -11 -17 -13 -31 -5 -24 -5 -23 -13 8 -7 29 -25 46 -25 23
0 -5 -9 -11 -20 -14 -11 -3 -20 -2 -20 1 0 4 -17 7 -38 6 -20 0 -43 4 -49 9
-9 7 -13 5 -13 -7 0 -33 -19 -15 -22 21 -2 28 -8 39 -22 41 -11 3 -16 0 -12
-7 10 -15 -3 -53 -15 -46 -16 10 -21 -22 -11 -70 9 -42 -1 -64 -14 -30 -10 25
-43 0 -37 -27 4 -23 4 -23 -12 -3 -9 11 -19 32 -22 47 -3 15 -17 35 -30 44
-18 11 -23 12 -17 3 5 -8 10 -25 11 -39 1 -14 5 -41 9 -60 l7 -35 -27 28 c-14
15 -26 38 -26 50 0 12 -7 30 -14 39 -12 16 -13 15 -14 -10 -1 -89 -5 -122 -13
-116 -5 3 -9 13 -9 22 0 14 -2 15 -9 3 -8 -12 -12 -12 -25 -2 -14 12 -16 9
-17 -25 0 -22 -3 -33 -6 -26 -2 6 -17 12 -33 12 -19 0 -36 10 -53 30 -14 17
-28 30 -31 30 -3 0 -2 -23 1 -51 6 -49 5 -51 -15 -44 -16 4 -22 2 -22 -9 0 -8
-5 -18 -10 -21 -11 -7 -67 29 -87 55 -6 8 -15 12 -19 8 -4 -5 0 -16 9 -26 10
-10 17 -25 17 -32 0 -19 -16 -2 -39 40 -10 19 -23 36 -29 38 -7 2 -6 -7 3 -25
25 -47 14 -73 -15 -38 -18 21 -27 19 -34 -10 -4 -17 -11 -23 -19 -18 -13 8
-77 15 -77 8 0 -3 7 -23 17 -46 15 -39 15 -42 -1 -51 -13 -7 -16 -17 -11 -39
6 -27 0 -35 -27 -30 -5 0 -8 -9 -8 -20 0 -16 -5 -20 -20 -16 -13 3 -20 0 -20
-9 0 -21 -30 -17 -30 4 -1 15 -3 14 -19 -4 -12 -16 -22 -19 -34 -13 -10 6 -25
5 -42 -3 -21 -9 -31 -9 -46 0 -26 17 -24 6 6 -26 34 -36 32 -52 -2 -20 -21 20
-32 24 -45 17 -12 -7 -25 -2 -49 18 l-32 28 8 -40 c15 -70 10 -127 -13 -146
-14 -11 -19 -23 -15 -38 3 -11 2 -21 -2 -21 -23 0 -93 27 -109 42 -21 20 -55
33 -63 25 -2 -3 14 -23 36 -45 23 -22 41 -47 41 -56 0 -20 -4 -20 -40 -1 -27
14 -30 14 -30 0 0 -8 4 -15 10 -15 11 0 34 -40 26 -47 -3 -3 -13 -2 -23 2 -10
5 -31 9 -48 9 -16 1 -41 5 -54 10 -20 7 -23 6 -17 -9 10 -27 -21 -56 -53 -48
-26 6 -26 6 -7 -16 27 -29 13 -38 -29 -18 -46 22 -55 21 -55 -2 0 -10 -7 -24
-15 -31 -11 -9 -13 -16 -5 -24 15 -15 12 -26 -5 -20 -32 13 -13 -7 22 -21 35
-15 35 -16 17 -30 -19 -15 -19 -15 0 -30 31 -23 10 -30 -26 -8 -45 26 -123 39
-115 19 3 -8 -2 -21 -11 -29 -21 -19 -121 -6 -134 18 -5 8 -15 15 -22 15 -8 0
-19 7 -26 15 -10 13 -9 15 10 15 19 0 20 2 10 15 -15 18 -3 19 34 5 19 -7 24
-6 20 3 -6 16 -61 47 -83 47 -19 0 -41 18 -41 34 0 5 8 2 18 -7 21 -19 59 -22
64 -6 3 9 9 9 25 0 33 -17 48 -14 32 6 -13 15 -11 16 10 10 13 -3 31 -1 40 5
14 8 27 5 59 -17 26 -17 48 -25 59 -21 14 6 12 10 -15 26 -18 11 -38 20 -46
20 -13 0 -15 38 -2 76 5 16 -3 31 -34 63 -38 39 -55 66 -27 43 19 -16 107 -52
107 -44 -1 4 -23 25 -50 46 -68 53 -65 66 8 39 20 -8 14 14 -15 48 -20 23 -23
31 -10 26 9 -4 24 -10 34 -14 13 -5 15 -2 11 15 -7 24 2 28 20 10 23 -23 35 6
14 33 -39 51 -36 85 5 47 28 -26 54 -33 46 -11 -5 12 -1 14 15 8 25 -7 29 7 7
25 -8 7 -15 17 -15 22 0 5 -12 25 -26 44 -40 52 -24 50 40 -6 74 -65 96 -77
96 -52 0 22 -33 68 -80 109 -36 32 -37 50 -2 39 11 -4 25 -20 32 -36 12 -30
53 -64 64 -53 3 3 3 17 0 29 -6 24 9 34 21 14 12 -19 26 -11 15 9 -12 24 -13
34 -1 26 24 -14 18 16 -9 50 -38 48 -39 67 -2 32 32 -31 42 -34 42 -11 0 14 3
14 15 4 18 -15 19 -2 4 37 -32 81 -27 128 7 57 9 -20 24 -39 33 -42 8 -3 26
-17 38 -31 l24 -26 -15 38 c-8 20 -22 47 -31 59 -15 22 -22 53 -7 33 4 -5 18
-16 31 -23 23 -13 23 -13 7 9 -9 13 -16 33 -15 44 0 19 1 19 9 -1 11 -27 30
-40 30 -21 0 26 -29 110 -40 117 -8 5 -4 9 8 12 17 5 25 -6 51 -61 51 -108 75
-130 65 -58 -6 49 -45 157 -56 157 -5 0 -8 11 -8 24 0 14 -4 28 -10 31 -5 3
-10 15 -10 26 0 11 -16 51 -35 89 -19 38 -35 75 -35 82 0 7 23 -12 50 -42 52
-58 63 -55 30 10 -27 52 -25 64 5 44 42 -27 28 3 -20 43 -25 20 -45 42 -45 47
0 5 13 -2 28 -17 43 -41 56 -36 48 20 -4 31 -15 56 -32 74 -16 17 -22 29 -15
34 7 4 3 21 -14 49 -26 45 -31 61 -16 52 5 -3 18 -25 29 -49 11 -24 41 -68 66
-99 29 -36 41 -58 33 -61 -34 -11 104 -175 183 -217 16 -8 20 -8 20 3 0 13
-21 43 -87 127 l-28 35 40 -29 c22 -16 60 -47 84 -70 38 -36 42 -38 36 -16 -6
20 2 14 38 -25 37 -40 46 -46 47 -30 0 13 -37 56 -100 116 -55 53 -100 102
-100 108 0 6 17 -5 38 -24 103 -96 128 -115 149 -115 15 0 30 -12 47 -38 27
-44 54 -68 63 -58 12 12 -20 59 -57 84 -19 13 -34 25 -32 28 5 8 -26 59 -48
79 -12 11 -29 33 -37 50 -15 29 -14 28 29 -11 25 -23 56 -47 69 -55 13 -7 29
-19 36 -28 9 -12 16 -13 29 -5 27 16 28 31 2 57 -29 29 -61 77 -51 77 4 0 22
-14 40 -32 18 -17 35 -29 38 -26 3 2 -6 27 -20 54 -40 78 -29 76 17 -3 23 -40
44 -71 46 -68 7 7 28 -19 50 -61 18 -35 62 -86 62 -71 0 25 -47 122 -71 148
-16 18 -46 60 -67 95 -37 63 -134 172 -179 202 -14 8 -42 15 -62 14 -20 -1
-43 2 -51 7 -10 7 -6 10 17 9 17 -1 40 6 52 14 21 15 21 15 1 33 -12 11 -20
13 -20 6 0 -9 -5 -9 -21 0 l-21 11 23 13 c22 11 27 9 61 -26 26 -27 42 -36 57
-32 15 4 23 -1 30 -18 10 -26 81 -99 81 -83 0 15 -50 84 -60 84 -6 0 -10 7
-10 15 0 29 24 15 83 -47 32 -35 49 -49 38 -32 -11 17 -32 42 -46 55 -27 25
-50 59 -40 59 3 0 32 -25 65 -55 33 -30 64 -55 69 -55 5 0 19 -15 30 -33 11
-19 32 -46 47 -62 26 -28 26 -28 19 -4 -16 52 -15 52 10 4 15 -27 40 -63 56
-80 16 -16 43 -47 59 -69 17 -21 30 -32 30 -24 0 9 -9 27 -20 41 -13 17 -22
45 -24 79 -2 29 -6 62 -10 73 -4 11 4 -2 18 -30 14 -27 30 -62 35 -77 5 -16
15 -28 21 -28 6 0 5 14 -5 37 l-15 36 20 -18 c20 -18 21 -18 14 1 -4 10 -15
30 -24 44 -9 14 -26 48 -39 77 -13 29 -30 54 -38 57 -16 7 -63 107 -63 135 0
23 -77 127 -121 164 -18 15 -30 29 -28 32 9 8 137 -124 194 -201 54 -71 65
-92 45 -79 -15 9 -13 3 20 -67 33 -69 71 -127 83 -128 14 0 7 28 -18 64 -37
55 -68 118 -71 145 -2 13 -8 29 -13 34 -6 6 -11 15 -11 20 0 19 32 -18 55 -62
21 -42 59 -91 70 -91 6 0 -6 63 -15 75 -4 6 -10 21 -14 35 -5 17 0 13 14 -12
24 -44 34 -49 28 -13 -5 21 -3 23 10 13 8 -8 4 9 -12 39 -29 58 -33 79 -11 49
8 -11 15 -16 15 -10 0 5 16 -20 35 -55 42 -78 49 -85 43 -44 -2 18 -1 30 4 27
4 -3 8 -11 8 -19 0 -29 43 -126 51 -114 4 7 0 27 -8 43 -9 17 -26 58 -39 91
-12 33 -31 85 -43 115 -11 30 -21 59 -21 65 0 20 38 -32 54 -75 9 -25 34 -85
54 -135 l37 -90 5 40 c4 27 0 51 -11 75 -10 19 -23 55 -29 80 -24 88 -88 257
-105 273 -6 7 -14 32 -18 56 -3 24 -2 40 2 35 24 -27 230 -457 238 -496 9 -47
81 -195 98 -202 37 -14 30 40 -16 114 -17 28 -29 56 -26 63 3 8 -4 19 -14 25
-10 7 -19 17 -19 23 0 5 5 7 12 3 8 -5 9 -2 4 12 -32 75 -62 171 -58 183 3 8
0 11 -6 7 -6 -4 -8 2 -5 14 3 11 -2 31 -11 45 -20 30 -20 36 -1 29 10 -4 15 0
15 12 0 41 48 -75 59 -141 12 -82 8 -96 -9 -26 -7 28 -16 51 -22 51 -5 0 -7
-6 -4 -12 2 -7 10 -32 17 -55 6 -24 15 -43 20 -43 5 0 18 -15 30 -32 l20 -33
-7 60 c-4 33 -13 80 -20 104 -15 52 -9 72 13 41 11 -15 17 -51 19 -109 2 -47
10 -104 18 -126 l15 -40 2 45 c1 25 3 36 5 25 24 -116 64 -223 51 -135 -3 19
-12 81 -20 138 -9 62 -22 111 -31 121 -17 19 -22 46 -7 37 5 -3 11 1 15 9 3 8
1 17 -4 20 -6 4 -10 13 -10 22 0 12 3 13 15 3 12 -10 15 -7 21 15 9 36 -2 123
-18 144 -12 14 -11 15 5 2 23 -18 22 0 -3 47 -11 20 -37 51 -59 67 -21 17 -46
41 -54 55 -9 14 -50 61 -91 105 -112 118 -213 247 -353 453 -18 26 -48 67 -67
92 -72 92 -132 173 -163 223 -18 28 -44 63 -58 77 -15 15 -50 61 -78 103 -128
187 -467 551 -622 667 -49 37 -117 82 -150 100 -33 19 -71 41 -85 50 -28 20
-195 70 -225 69 -11 0 -45 -6 -77 -13z m674 -1901 c4 -5 5 -11 3 -13 -5 -5
-75 51 -75 61 0 8 61 -32 72 -48z m52 -11 c3 -8 2 -12 -4 -9 -6 3 -10 10 -10
16 0 14 7 11 14 -7z m965 -74 c0 -9 -4 -8 -9 5 -5 11 -9 27 -9 35 0 9 4 8 9
-5 5 -11 9 -27 9 -35z m-815 -100 c9 0 16 -6 16 -14 0 -33 132 -51 235 -32
l37 7 -7 -30 c-6 -28 -4 -31 18 -31 38 0 41 -14 5 -26 -21 -7 -40 -8 -50 -2
-11 5 -18 5 -18 -1 0 -11 -18 -9 -40 3 -8 5 -4 -3 9 -17 24 -26 22 -31 -10
-28 -20 2 -43 -24 -34 -39 11 -18 27 -11 20 9 -5 17 -2 19 22 15 15 -3 34 -11
42 -17 11 -9 13 -9 8 0 -10 16 9 26 33 18 19 -6 17 -9 -18 -35 -39 -28 -59
-33 -118 -31 -28 1 -31 4 -26 28 5 26 4 26 -38 19 -28 -4 -47 -2 -58 6 -13 11
-15 10 -10 -9 4 -16 2 -23 -8 -23 -8 0 -14 3 -14 8 0 11 -51 29 -87 31 -39 2
-52 -15 -18 -23 14 -4 25 -11 25 -16 0 -6 9 -10 20 -10 36 0 120 -22 120 -31
0 -5 -9 -18 -20 -29 -24 -24 -75 -28 -66 -5 3 9 0 15 -9 15 -8 0 -15 -7 -15
-16 0 -8 -4 -13 -9 -10 -5 4 -16 3 -25 0 -12 -5 -14 -10 -6 -19 13 -16 -10
-27 -31 -15 -9 6 -21 2 -35 -11 -16 -15 -29 -19 -44 -14 -41 13 -82 12 -87 -2
-3 -8 -11 -12 -18 -9 -7 2 -27 -9 -44 -25 -18 -16 -50 -33 -70 -38 -35 -7 -38
-6 -37 12 1 15 11 23 33 29 18 5 35 13 38 18 3 6 17 10 30 10 15 0 32 11 46
29 17 23 27 28 49 24 16 -2 31 1 35 7 3 5 15 10 26 10 21 0 24 30 4 32 -5 0
-20 4 -31 9 -13 4 -42 2 -72 -5 -42 -11 -59 -11 -102 0 -29 8 -55 16 -58 18
-12 12 10 36 33 36 14 0 25 5 25 10 0 6 -3 9 -7 9 -20 -3 -34 2 -28 11 3 5 12
7 19 4 8 -3 17 0 22 7 9 15 -19 36 -66 49 -40 11 -95 60 -68 60 9 0 33 -7 54
-16 30 -12 52 -14 94 -9 30 5 96 9 145 10 88 3 145 11 145 23 0 3 -7 13 -15
22 -13 14 -11 16 20 12 20 -2 38 -8 41 -13 8 -14 24 -11 24 5 0 8 -9 21 -20
29 -20 14 -100 119 -100 131 0 4 29 -23 64 -59 35 -36 71 -65 80 -65z m1195
20 c0 -9 -4 -8 -9 5 -5 11 -9 27 -9 35 0 9 4 8 9 -5 5 -11 9 -27 9 -35z m-804
-60 c3 -5 2 -10 -4 -10 -5 0 -13 5 -16 10 -3 6 -2 10 4 10 5 0 13 -4 16 -10z
m-1220 -240 c-22 -8 -47 -2 -40 10 2 4 17 5 32 2 24 -5 25 -6 8 -12z m355 -32
c30 -6 63 -11 73 -10 9 0 17 -3 17 -9 0 -5 -5 -9 -11 -9 -5 0 -7 -5 -3 -12 4
-7 3 -8 -4 -4 -6 4 -41 7 -77 7 -52 1 -65 4 -65 16 0 9 -8 22 -17 30 -17 13
-16 14 7 8 14 -3 50 -11 80 -17z m709 -28 c11 -24 11 -24 -3 -6 -9 11 -16 24
-16 30 0 12 5 7 19 -24z m42 3 c13 -16 12 -17 -3 -4 -17 13 -22 21 -14 21 2 0
10 -8 17 -17z m199 -33 c0 -11 -6 -9 -21 7 -12 11 -18 26 -14 33 8 13 34 -16
35 -40z m-416 -51 c-7 -11 -54 -12 -54 -1 0 15 10 19 35 14 14 -2 22 -8 19
-13z m460 -35 c3 -8 2 -12 -4 -9 -6 3 -10 10 -10 16 0 14 7 11 14 -7z m-741
-116 c-8 -14 -33 5 -33 25 0 20 0 20 19 1 10 -10 17 -22 14 -26z m-307 -21 c8
-8 -74 -20 -86 -12 -21 13 3 26 41 22 22 -2 42 -7 45 -10z m639 -15 c-3 -3
-11 0 -18 7 -9 10 -8 11 6 5 10 -3 15 -9 12 -12z m2479 3 c-4 -8 -1 -15 5 -15
6 0 11 -7 11 -15 0 -18 -5 -19 -30 -3 -18 11 -18 14 -3 30 20 22 24 23 17 3z
m956 -125 c0 -5 -4 -10 -10 -10 -5 0 -10 5 -10 10 0 6 5 10 10 10 6 0 10 -4
10 -10z m-3546 -16 c5 -14 4 -15 -9 -4 -17 14 -19 20 -6 20 5 0 12 -7 15 -16z
m3433 -56 c-3 -8 -6 -5 -6 6 -1 11 2 17 5 13 3 -3 4 -12 1 -19z m-837 -3 c0
-8 -4 -15 -10 -15 -5 0 -7 7 -4 15 4 8 8 15 10 15 2 0 4 -7 4 -15z m-33 -57
c-3 -8 -6 -5 -6 6 -1 11 2 17 5 13 3 -3 4 -12 1 -19z m993 -55 c0 -6 3 -18 6
-27 3 -9 2 -16 -3 -16 -13 0 -30 32 -37 70 l-7 35 20 -25 c11 -14 21 -30 21
-37z m-1000 26 c0 -6 -4 -7 -10 -4 -5 3 -10 11 -10 16 0 6 5 7 10 4 6 -3 10
-11 10 -16z m-410 -76 c0 -5 -5 -15 -10 -23 -8 -12 -10 -11 -10 8 0 12 5 22
10 22 6 0 10 -3 10 -7z m-608 -35 c-6 -7 -12 -29 -14 -48 -2 -19 -7 -34 -13
-33 -17 4 -17 52 -1 69 9 8 16 23 16 32 0 12 3 13 12 4 8 -8 8 -15 0 -24z
m-102 -29 c0 -11 -4 -17 -10 -14 -5 3 -10 13 -10 21 0 8 5 14 10 14 6 0 10 -9
10 -21z m457 -41 c-3 -8 -6 -5 -6 6 -1 11 2 17 5 13 3 -3 4 -12 1 -19z m227
-66 l-7 -27 -7 25 c-3 14 -2 33 4 43 10 16 11 16 14 2 2 -9 0 -29 -4 -43z
m1703 -14 c-3 -8 -6 -5 -6 6 -1 11 2 17 5 13 3 -3 4 -12 1 -19z m-4013 -4 c3
-8 2 -12 -4 -9 -6 3 -10 10 -10 16 0 14 7 11 14 -7z m1596 6 c0 -5 -5 -10 -11
-10 -5 0 -7 5 -4 10 3 6 8 10 11 10 2 0 4 -4 4 -10z m1494 -24 c-3 -14 -10
-26 -15 -26 -4 0 -3 14 3 31 12 36 22 33 12 -5z m-787 -103 c-2 -21 -4 -4 -4
37 0 41 2 58 4 38 2 -21 2 -55 0 -75z m2468 37 c19 0 29 -18 17 -33 -5 -7 -12
-21 -15 -32 -4 -16 -5 -15 -6 5 0 14 -8 36 -17 48 -11 16 -14 31 -8 50 l8 27
4 -32 c2 -20 9 -33 17 -33z m52 -2 c-3 -8 -6 -5 -6 6 -1 11 2 17 5 13 3 -3 4
-12 1 -19z m-117 -58 c0 -11 -2 -20 -4 -20 -2 0 -6 9 -9 20 -3 11 -1 20 4 20
5 0 9 -9 9 -20z m-1223 -52 c-3 -8 -6 -5 -6 6 -1 11 2 17 5 13 3 -3 4 -12 1
-19z m-1542 -71 l16 -31 -31 29 c-16 16 -30 35 -30 43 0 21 26 -2 45 -41z
m1525 9 c-6 -20 -15 -36 -20 -36 -5 0 -1 18 7 40 20 49 30 45 13 -4z m292 19
c4 -20 2 -23 -8 -14 -7 6 -10 17 -7 25 7 20 10 18 15 -11z m65 3 c-3 -8 -6 -5
-6 6 -1 11 2 17 5 13 3 -3 4 -12 1 -19z m740 -20 c-3 -7 -5 -2 -5 12 0 14 2
19 5 13 2 -7 2 -19 0 -25z m-757 18 c0 -3 -4 -8 -10 -11 -5 -3 -10 -1 -10 4 0
6 5 11 10 11 6 0 10 -2 10 -4z m22 -128 c-9 -9 -12 1 -11 43 l1 54 11 -43 c7
-31 7 -46 -1 -54z m-1848 46 c3 -8 2 -12 -4 -9 -6 3 -10 10 -10 16 0 14 7 11
14 -7z m3276 -35 c0 -16 -4 -28 -9 -25 -5 3 -11 -3 -14 -14 -3 -11 -12 -20
-21 -20 -22 0 -20 10 9 44 14 16 25 33 25 38 0 4 2 8 5 8 3 0 5 -14 5 -31z
m-730 -16 c-1 -24 -2 -26 -11 -10 -5 9 -7 22 -4 27 10 17 15 11 15 -17z m-970
-32 c-10 -37 -30 -65 -30 -42 0 17 32 92 37 87 2 -2 -1 -22 -7 -45z m1006 -6
c-1 -8 -5 -17 -8 -21 -5 -4 -4 16 1 34 3 9 9 -1 7 -13z m-2229 -27 c-3 -7 -5
-2 -5 12 0 14 2 19 5 13 2 -7 2 -19 0 -25z m2940 -22 c-6 -17 -19 -39 -29 -50
-18 -19 -18 -19 -18 26 0 46 6 54 40 54 15 0 16 -4 7 -30z m-4767 -1 c0 -8 -7
-15 -15 -15 -8 0 -15 7 -15 15 0 8 7 15 15 15 8 0 15 -7 15 -15z m3011 -41
c-9 -28 -9 -29 -10 -3 -1 14 2 29 6 32 11 12 13 2 4 -29z m1076 -6 c-3 -8 -6
-5 -6 6 -1 11 2 17 5 13 3 -3 4 -12 1 -19z m-111 -46 c-11 -10 -15 4 -8 28 l7
25 3 -23 c2 -13 1 -26 -2 -30z m-289 16 c-3 -8 -6 -5 -6 6 -1 11 2 17 5 13 3
-3 4 -12 1 -19z m1060 -20 c-3 -8 -6 -5 -6 6 -1 11 2 17 5 13 3 -3 4 -12 1
-19z m-45 -23 c-2 -14 -8 -28 -13 -31 -5 -3 -7 2 -4 10 3 9 7 23 10 31 7 24
13 17 7 -10z m-735 -17 c-3 -7 -5 -2 -5 12 0 14 2 19 5 13 2 -7 2 -19 0 -25z
m669 -45 c-11 -11 -19 6 -11 24 8 17 8 17 12 0 3 -10 2 -21 -1 -24z m124 27
c0 -6 -7 -13 -15 -16 -8 -4 -13 -10 -10 -14 5 -8 -25 -23 -32 -16 -6 6 38 56
49 56 4 0 8 -5 8 -10z m-1075 -114 c-8 -48 -22 -97 -31 -109 -15 -20 -15 -21
-11 -2 3 11 15 62 27 113 12 51 24 91 27 89 2 -2 -3 -43 -12 -91z m572 12 c-3
-8 -6 -5 -6 6 -1 11 2 17 5 13 3 -3 4 -12 1 -19z m-320 -35 c-3 -10 -5 -4 -5
12 0 17 2 24 5 18 2 -7 2 -21 0 -30z m958 7 c-10 -11 -20 -18 -23 -15 -7 6 18
35 31 35 5 0 2 -9 -8 -20z m-1108 -32 c-3 -8 -6 -5 -6 6 -1 11 2 17 5 13 3 -3
4 -12 1 -19z m3 -100 c-7 -19 -9 -15 -9 22 0 37 2 41 9 23 6 -14 6 -32 0 -45z
m1537 20 c-3 -8 -6 -5 -6 6 -1 11 2 17 5 13 3 -3 4 -12 1 -19z m-6047 -38 c0
-5 -2 -10 -4 -10 -3 0 -8 5 -11 10 -3 6 -1 10 4 10 6 0 11 -4 11 -10z m-405
-58 c-3 -3 -11 0 -18 7 -9 10 -8 11 6 5 10 -3 15 -9 12 -12z m4992 -44 c-3 -7
-5 -2 -5 12 0 14 2 19 5 13 2 -7 2 -19 0 -25z m-4967 -45 c50 -13 106 -29 168
-48 18 -6 21 -4 16 10 -5 12 -3 16 6 13 7 -2 14 -18 14 -36 1 -37 3 -36 -35
-16 -39 20 -53 15 -34 -13 12 -17 24 -22 46 -19 20 2 32 -1 36 -11 9 -23 0
-23 -68 -3 -73 23 -93 20 -87 -13 4 -19 0 -23 -16 -22 -12 1 -22 9 -24 18 -2
12 -14 17 -35 17 -39 0 -54 9 -59 35 -3 17 -21 39 -63 73 -6 5 -17 7 -25 4 -8
-2 -2 5 14 17 32 21 46 21 146 -6z m-130 -83 c0 -5 -6 -10 -14 -10 -8 0 -18 5
-21 10 -3 6 3 10 14 10 12 0 21 -4 21 -10z m5020 -52 c0 -30 -15 -54 -24 -39
-4 6 -2 11 4 11 6 0 8 10 4 25 -4 15 -2 25 5 25 6 0 11 -10 11 -22z m-53 -100
c-3 -8 -6 -5 -6 6 -1 11 2 17 5 13 3 -3 4 -12 1 -19z m-4777 -8 c0 -5 -5 -10
-11 -10 -5 0 -7 5 -4 10 3 6 8 10 11 10 2 0 4 -4 4 -10z m-90 -4 c0 -11 -19
-15 -25 -6 -3 5 1 10 9 10 9 0 16 -2 16 -4z m4957 -38 c-3 -7 -5 -2 -5 12 0
14 2 19 5 13 2 -7 2 -19 0 -25z m-4847 -32 c0 -11 -19 -15 -25 -6 -3 5 1 10 9
10 9 0 16 -2 16 -4z m3670 -36 c0 -5 -5 -10 -11 -10 -5 0 -7 5 -4 10 3 6 8 10
11 10 2 0 4 -4 4 -10z m-3786 -50 c-22 -9 -29 -6 -20 9 4 6 14 7 23 4 15 -6
14 -7 -3 -13z m4783 -67 c-3 -10 -5 -4 -5 12 0 17 2 24 5 18 2 -7 2 -21 0 -30z
m-17 -17 c0 -19 -5 -47 -12 -63 l-12 -28 -4 29 c-5 38 6 96 18 96 6 0 10 -15
10 -34z m-2612 -53 c3 -21 -22 -38 -39 -27 -13 8 -11 42 4 47 20 9 32 2 35
-20z m2619 -90 c-2 -16 -4 -3 -4 27 0 30 2 43 4 28 2 -16 2 -40 0 -55z m100
35 c-3 -7 -5 -2 -5 12 0 14 2 19 5 13 2 -7 2 -19 0 -25z m-1190 -70 c-3 -7 -5
-2 -5 12 0 14 2 19 5 13 2 -7 2 -19 0 -25z m-3827 -8 c0 -5 -4 -10 -9 -10 -6
0 -13 5 -16 10 -3 6 1 10 9 10 9 0 16 -4 16 -10z m3832 -67 c-10 -28 -10 -28
-11 12 -1 28 2 36 10 28 8 -8 8 -19 1 -40z m1142 -105 c8 -21 12 -38 8 -38 -6
0 -24 35 -50 95 -2 6 2 3 11 -5 8 -8 22 -32 31 -52z m-1295 -30 c-5 -18 -18
-41 -30 -53 l-20 -20 12 30 c14 32 39 75 44 75 2 0 -1 -14 -6 -32z m2579 -22
c9 3 46 0 82 -6 36 -6 76 -11 89 -10 13 0 30 -5 37 -11 8 -6 14 -8 14 -3 0 5
7 -2 16 -14 18 -26 49 -29 62 -5 11 19 42 11 42 -11 0 -9 11 -18 24 -22 24 -6
43 -37 64 -102 8 -23 7 -55 -3 -115 -20 -125 -25 -139 -43 -132 -9 3 -13 3
-10 -1 4 -4 3 -15 -2 -25 -6 -11 -7 -20 -1 -24 10 -6 -18 -65 -31 -65 -3 0
-11 -15 -17 -33 -8 -23 -28 -44 -66 -70 -30 -20 -57 -37 -60 -37 -3 0 -5 18
-5 40 0 33 3 40 20 40 11 0 21 5 21 10 1 6 2 16 3 23 1 15 -35 52 -51 52 -17
0 -21 -6 -26 -42 -7 -44 -10 -48 -64 -68 -49 -18 -84 -46 -96 -77 -4 -11 -15
-17 -29 -15 -14 1 -22 -3 -20 -10 2 -12 -18 -18 -41 -14 -5 1 -6 -3 -3 -8 3
-5 -1 -14 -9 -21 -8 -7 -15 -9 -15 -4 0 5 -12 14 -26 21 -23 11 -27 10 -31 -7
-6 -24 -58 -37 -80 -19 -9 8 -21 14 -27 14 -34 3 -146 73 -146 92 0 7 -9 13
-19 13 -11 0 -23 4 -26 10 -3 5 -21 17 -40 26 -19 9 -35 20 -35 25 0 5 -15 15
-32 23 -18 8 -60 39 -93 70 -33 30 -81 65 -106 77 -54 25 -67 47 -63 108 3 36
11 51 54 96 27 30 50 60 50 67 0 26 156 128 196 128 10 0 32 7 48 15 17 9 50
15 77 14 38 -2 49 -7 58 -25 7 -17 6 -25 -5 -35 -10 -8 -13 -21 -9 -36 4 -19
2 -23 -12 -21 -10 2 -19 -4 -21 -16 -3 -14 0 -17 12 -13 9 4 16 2 16 -3 0 -6
-7 -10 -15 -10 -18 0 -20 -31 -3 -48 10 -10 10 -15 -2 -22 -11 -7 -15 -28 -15
-77 0 -37 -4 -71 -10 -75 -12 -8 37 -28 71 -28 14 0 24 -6 24 -15 0 -8 19 -34
43 -59 44 -46 53 -46 95 -8 7 6 18 12 23 12 5 0 9 11 9 25 0 29 11 31 46 8 19
-12 31 -14 42 -7 19 13 25 44 7 44 -7 0 -18 7 -25 16 -8 8 -9 14 -4 13 22 -4
32 2 30 19 -2 9 5 27 15 40 11 15 16 33 12 50 -3 15 -7 45 -9 67 -2 22 -6 56
-10 76 -4 25 -1 39 10 48 12 10 13 18 5 32 -5 11 -13 17 -17 15 -5 -3 -14 -1
-21 4 -18 10 -5 30 19 30 10 0 22 5 26 12 5 8 9 9 11 1 2 -6 12 -9 21 -7z
m-2727 -83 c-12 -20 -14 -14 -5 12 4 9 9 14 11 11 3 -2 0 -13 -6 -23z m-3653
-23 c11 0 25 6 31 14 7 8 22 11 38 8 26 -5 26 -5 5 -13 -13 -5 -20 -14 -16
-22 7 -18 -27 -32 -37 -15 -6 9 -12 8 -27 -5 -26 -24 -40 -21 -37 7 2 14 -3
27 -11 30 -20 7 -18 24 4 28 9 2 20 -4 24 -14 4 -10 16 -18 26 -18z m449 -56
c-3 -3 -12 -4 -19 -1 -8 3 -5 6 6 6 11 1 17 -2 13 -5z m-262 -14 c7 -11 -9
-11 -45 0 -24 8 -24 8 7 9 17 1 35 -3 38 -9z m-118 -6 c-3 -3 -12 -4 -19 -1
-8 3 -5 6 6 6 11 1 17 -2 13 -5z m6014 -20 c11 -14 10 -18 -6 -30 -24 -18 -39
-18 -55 1 -10 12 -10 18 0 30 16 20 44 19 61 -1z m-994 -56 c-3 -7 -5 -2 -5
12 0 14 2 19 5 13 2 -7 2 -19 0 -25z m-1536 -15 c0 -5 2 -24 3 -43 l3 -35 -13
30 c-16 36 -17 55 -4 55 6 0 10 -3 11 -7z m2753 -94 c-8 -13 -24 -1 -24 18 0
13 3 13 15 3 8 -7 12 -16 9 -21z m246 -333 c0 -2 -7 -6 -15 -10 -8 -3 -15 -1
-15 4 0 6 7 10 15 10 8 0 15 -2 15 -4z m-4320 -226 c-19 -13 -30 -13 -30 0 0
6 10 10 23 10 18 0 19 -2 7 -10z m3784 -235 c20 -8 36 -17 36 -19 0 -8 -63 13
-74 24 -14 14 -5 13 38 -5z m1103 -161 c-3 -3 -12 -4 -19 -1 -8 3 -5 6 6 6 11
1 17 -2 13 -5z m-172 -44 c-16 -4 -39 -8 -50 -8 -16 0 -15 2 5 8 14 4 36 8 50
8 22 0 22 -1 -5 -8z"/>
<path d="M5510 11085 c7 -9 15 -13 17 -11 7 7 -7 26 -19 26 -6 0 -6 -6 2 -15z"/>
<path d="M5630 11066 c0 -2 8 -10 18 -17 15 -13 16 -12 3 4 -13 16 -21 21 -21
13z"/>
<path d="M5685 11060 c3 -5 14 -10 23 -10 15 0 15 2 2 10 -20 13 -33 13 -25 0z"/>
<path d="M5386 11051 c-3 -5 1 -14 9 -21 13 -10 21 -10 43 0 l27 13 -25 8
c-35 10 -48 10 -54 0z"/>
<path d="M5245 11005 c28 -14 59 -25 70 -25 19 0 19 0 0 19 -12 11 -41 21 -70
25 l-50 5 50 -24z"/>
<path d="M5380 10866 c0 -2 7 -6 15 -10 8 -3 15 -1 15 4 0 6 -7 10 -15 10 -8
0 -15 -2 -15 -4z"/>
<path d="M12790 12106 c-79 -23 -128 -44 -197 -84 -38 -21 -82 -44 -100 -51
-17 -7 -39 -21 -49 -32 -9 -10 -21 -19 -27 -19 -5 0 -37 -24 -70 -53 -34 -30
-91 -73 -127 -97 -36 -24 -103 -76 -150 -117 -47 -40 -113 -97 -147 -125 -33
-29 -162 -143 -285 -253 -250 -223 -306 -269 -452 -370 -167 -117 -246 -176
-246 -186 0 -5 -7 -9 -15 -9 -8 0 -38 -13 -67 -29 -98 -53 -113 -61 -158 -80
-42 -18 -90 -66 -90 -91 0 -6 -6 -21 -14 -33 -27 -44 -38 -116 -26 -173 13
-64 36 -72 70 -24 12 17 26 27 31 24 6 -3 9 2 7 11 -2 10 2 20 9 22 12 4 12
-14 1 -32 -3 -5 -13 -36 -21 -67 -12 -47 -13 -60 -2 -75 7 -10 15 -16 17 -13
64 81 110 156 120 193 10 38 16 46 30 41 21 -6 82 52 115 111 21 37 23 39 29
17 l6 -22 34 25 c22 17 32 20 28 10 -4 -9 -1 -15 9 -15 11 0 9 -12 -13 -53
-19 -38 -25 -59 -19 -70 6 -11 -1 -45 -21 -108 -17 -50 -29 -93 -27 -96 11
-10 40 14 62 51 13 22 38 52 55 66 16 14 30 29 30 35 1 15 38 61 44 54 3 -3
-10 -30 -29 -60 -19 -30 -35 -64 -35 -75 0 -12 -24 -55 -53 -95 -56 -77 -73
-109 -57 -109 22 0 61 21 55 30 -8 14 115 137 150 150 14 5 23 14 20 20 -10
16 76 102 96 97 10 -3 21 0 24 7 3 6 3 1 1 -11 -3 -19 0 -23 21 -23 20 0 23
-4 18 -19 -4 -14 0 -23 14 -30 25 -14 68 -14 76 0 4 6 19 7 35 4 16 -4 37 -2
47 3 10 6 29 12 43 13 19 3 25 0 25 -16 0 -13 5 -19 15 -16 43 11 72 3 98 -26
16 -16 47 -38 70 -48 23 -11 42 -22 42 -27 0 -4 7 -8 15 -8 8 0 15 -5 15 -12
0 -6 3 -8 6 -5 4 4 -1 18 -10 33 -10 14 -15 28 -12 31 11 11 70 -22 108 -60
27 -28 44 -38 59 -34 11 3 32 -1 47 -9 31 -16 62 -18 62 -5 0 5 26 7 58 4 48
-4 60 -2 72 13 9 11 10 15 3 10 -15 -9 -36 2 -28 14 3 5 17 4 31 -2 22 -10 27
-9 35 4 11 21 45 13 64 -16 14 -18 27 -22 113 -25 96 -4 97 -5 49 -15 -26 -6
-48 -15 -48 -21 0 -10 76 -36 101 -34 28 2 40 -1 40 -11 0 -5 -18 -10 -41 -10
-22 0 -50 -5 -62 -11 -20 -11 -18 -13 24 -35 74 -39 129 -25 115 29 -5 23 9
60 46 117 18 29 30 65 164 505 20 66 49 147 64 180 33 71 77 168 113 246 66
145 150 683 127 814 -10 57 -59 167 -92 207 -13 15 -41 34 -63 44 -52 21 -168
27 -225 10z m-710 -790 c0 -42 -19 -20 -26 30 -5 37 -4 38 10 20 9 -11 16 -33
16 -50z m447 -28 c-3 -8 -6 -5 -6 6 -1 11 2 17 5 13 3 -3 4 -12 1 -19z m-21
-23 c-2 -15 -34 -44 -48 -45 -18 0 -6 32 12 37 11 3 20 9 20 14 0 5 4 9 9 9 5
0 8 -7 7 -15z m-396 -96 c0 -11 -4 -17 -10 -14 -5 3 -10 15 -10 26 0 11 5 17
10 14 6 -3 10 -15 10 -26z m560 10 c0 -5 5 -7 12 -3 6 4 8 3 4 -4 -3 -6 1 -15
11 -21 24 -13 28 -75 4 -65 -32 14 -74 17 -67 5 4 -6 0 -11 -10 -11 -24 0 -94
-42 -94 -56 0 -14 -20 -23 -37 -16 -14 5 -18 32 -4 32 4 0 7 18 6 40 -3 43 -1
44 83 43 17 0 24 7 29 28 5 26 17 35 51 38 6 0 12 -4 12 -10z m-592 -153 c-4
-6 -8 -23 -8 -38 0 -15 -4 -28 -10 -28 -5 0 -10 -5 -10 -11 0 -5 4 -8 9 -5 15
10 -1 -38 -18 -52 -9 -7 -11 -12 -6 -11 6 1 18 -1 29 -6 13 -6 32 -1 62 16 24
13 44 26 44 30 0 3 6 6 13 7 28 2 48 9 59 20 7 7 18 12 25 12 6 0 16 7 21 15
12 22 38 9 52 -25 6 -16 27 -44 45 -62 35 -35 62 -88 45 -88 -6 0 -10 5 -10
11 0 5 -4 7 -10 4 -5 -3 -10 -1 -10 4 0 6 -4 11 -10 11 -5 0 -10 -7 -10 -16 0
-14 -1 -14 -16 0 -8 9 -21 16 -27 16 -7 0 -24 6 -38 14 -45 23 -168 -1 -161
-32 2 -14 -30 -16 -44 -3 -5 5 -18 11 -29 13 -14 2 -20 -3 -20 -16 0 -34 -20
-27 -37 11 -14 32 -14 40 -3 49 9 7 10 15 4 25 -12 18 -2 87 17 116 8 12 14
31 14 42 0 11 8 24 18 30 14 8 18 5 23 -17 3 -15 2 -31 -3 -36z m388 -14 c0
-10 -6 -19 -13 -19 -17 0 -17 24 0 30 6 3 12 6 12 6 1 1 1 -7 1 -17z m-252 -8
c28 -28 15 -41 -34 -34 -18 2 -16 0 -24 28 -6 19 -4 22 18 22 13 0 32 -7 40
-16z m-77 -54 c10 -13 8 -16 -7 -17 -11 -1 -22 3 -25 8 -4 5 -11 7 -16 4 -5
-4 -9 -2 -9 4 0 7 41 22 45 16 1 0 6 -7 12 -15z m-217 -78 c0 -4 -11 -9 -26
-10 -14 -1 -23 2 -19 8 7 12 45 14 45 2z m46 -37 c-10 -12 -38 -16 -32 -6 2 3
6 14 9 24 6 15 9 16 20 5 10 -8 11 -16 3 -23z m204 -45 c0 -5 -2 -10 -4 -10
-3 0 -8 5 -11 10 -3 6 -1 10 4 10 6 0 11 -4 11 -10z m-100 -31 c0 -5 -4 -9
-10 -9 -5 0 -10 7 -10 16 0 8 5 12 10 9 6 -3 10 -10 10 -16z m441 -32 c8 -7
31 -39 50 -72 34 -57 36 -65 35 -149 -1 -103 -14 -119 -46 -56 -12 23 -32 45
-46 50 -16 6 -23 15 -18 22 6 10 4 11 -7 1 -18 -17 -32 -16 -26 1 4 11 1 13
-11 10 -14 -5 -14 -4 1 6 10 6 25 9 32 6 8 -3 17 -1 20 4 4 6 16 10 28 10 18
0 19 2 7 10 -10 6 -11 10 -2 10 6 0 12 11 12 25 0 27 -40 115 -52 115 -4 0 -8
5 -8 10 0 13 11 12 31 -3z m-431 -578 c0 -5 -6 -9 -14 -9 -15 0 -28 24 -19 34
7 7 33 -13 33 -25z"/>
<path d="M6796 11120 c5 -19 8 -53 7 -75 -1 -22 1 -34 4 -28 8 22 35 -14 28
-37 -4 -13 0 -26 11 -37 15 -16 16 -15 11 13 -3 16 -11 59 -18 97 -8 42 -20
74 -32 85 -19 17 -19 16 -11 -18z"/>
<path d="M6871 11100 c-11 -6 -10 -23 8 -92 11 -46 21 -90 21 -98 0 -23 34
-89 46 -90 6 0 18 -24 27 -52 15 -51 15 -52 16 -17 1 19 -6 44 -14 55 -17 22
-20 54 -5 54 6 0 15 -10 20 -22 7 -19 9 -16 9 21 1 33 -2 42 -13 38 -10 -4
-15 9 -20 49 -10 86 -27 155 -37 149 -5 -3 -17 -2 -27 4 -10 5 -24 6 -31 1z"/>
<path d="M7430 11066 c0 -10 -5 -72 -11 -138 -8 -84 -9 -122 -1 -130 7 -7 12
1 17 28 3 22 11 58 17 81 12 50 6 149 -10 165 -9 9 -12 8 -12 -6z"/>
<path d="M7280 11053 c0 -10 -13 -25 -28 -34 -27 -15 -29 -15 -49 7 -27 30
-59 22 -67 -17 -3 -17 -12 -29 -21 -29 -26 0 -27 -24 -7 -147 11 -65 18 -134
16 -153 -5 -35 -5 -35 9 -11 14 23 15 23 20 5 3 -13 5 -10 6 11 8 160 12 189
31 207 11 10 20 23 20 29 0 6 5 7 10 4 6 -4 10 -34 10 -68 -1 -71 8 -145 20
-152 13 -8 23 52 25 155 1 52 6 121 10 153 4 31 5 57 1 57 -3 0 -6 -8 -6 -17z"/>
<path d="M6982 11035 c0 -16 2 -22 5 -12 2 9 2 23 0 30 -3 6 -5 -1 -5 -18z"/>
<path d="M7373 11013 c-19 -40 -17 -143 2 -143 12 0 15 14 15 69 0 38 3 76 6
85 10 27 -10 17 -23 -11z"/>
<path d="M6765 10966 c3 -47 10 -75 21 -85 15 -15 16 -12 12 34 -3 28 -13 66
-22 85 l-16 35 5 -69z"/>
<path d="M7520 11016 c0 -8 5 -18 10 -21 6 -3 10 3 10 14 0 12 -4 21 -10 21
-5 0 -10 -6 -10 -14z"/>
<path d="M6490 10886 c0 -30 69 -176 83 -176 12 0 1 33 -40 118 -35 73 -43 84
-43 58z"/>
<path d="M6871 10890 c0 -8 7 -31 15 -50 l14 -35 -5 39 c-4 38 -26 78 -24 46z"/>
<path d="M7718 10825 c2 -14 6 -25 8 -25 2 0 4 11 4 25 0 14 -4 25 -9 25 -4 0
-6 -11 -3 -25z"/>
<path d="M6550 10665 c0 -5 5 -17 10 -25 5 -8 10 -10 10 -5 0 6 -5 17 -10 25
-5 8 -10 11 -10 5z"/>
<path d="M5890 10640 c0 -5 11 -22 25 -37 24 -28 34 -18 15 16 -10 20 -40 36
-40 21z"/>
<path d="M10296 10608 c-4 -9 -6 -31 -4 -49 2 -25 5 -29 14 -18 5 8 7 30 4 49
-5 26 -8 31 -14 18z"/>
<path d="M5989 10544 c11 -22 26 -46 34 -53 27 -22 9 23 -24 60 l-30 34 20
-41z"/>
<path d="M6470 10570 c0 -8 5 -22 10 -30 9 -13 10 -13 10 0 0 8 -5 22 -10 30
-9 13 -10 13 -10 0z"/>
<path d="M10227 10574 c-9 -15 -4 -88 7 -102 23 -30 35 61 13 93 -8 10 -16 14
-20 9z"/>
<path d="M6090 10554 c0 -7 9 -22 21 -35 16 -19 18 -20 10 -4 -17 34 -31 51
-31 39z"/>
<path d="M7581 10527 c-11 -33 -7 -67 9 -67 7 0 20 56 20 88 0 25 -19 11 -29
-21z"/>
<path d="M7892 10540 c0 -14 2 -19 5 -12 2 6 2 18 0 25 -3 6 -5 1 -5 -13z"/>
<path d="M9858 10549 c-6 -18 11 -69 23 -69 12 0 11 12 -5 50 -8 20 -15 28
-18 19z"/>
<path d="M10366 10526 c-16 -26 -13 -50 11 -74 7 -7 13 -27 13 -43 0 -46 18
-25 25 29 4 26 9 54 11 63 5 17 -19 49 -36 49 -4 0 -15 -11 -24 -24z"/>
<path d="M7898 10492 c-16 -35 -30 -127 -42 -267 l-5 -60 24 85 c13 47 32 114
43 150 25 83 25 83 23 95 -1 6 -6 3 -12 -5 -8 -12 -9 -9 -5 13 9 39 -6 33 -26
-11z"/>
<path d="M6725 10478 c10 -31 25 -47 25 -26 0 24 -11 48 -22 48 -5 0 -6 -10
-3 -22z"/>
<path d="M6280 10475 c0 -5 5 -17 10 -25 5 -8 10 -10 10 -5 0 6 -5 17 -10 25
-5 8 -10 11 -10 5z"/>
<path d="M7475 10450 c3 -5 8 -10 11 -10 2 0 4 5 4 10 0 6 -5 10 -11 10 -5 0
-7 -4 -4 -10z"/>
<path d="M6696 10432 c-3 -5 -2 -21 3 -34 8 -20 10 -21 16 -6 8 20 -9 56 -19
40z"/>
<path d="M6250 10386 c0 -2 7 -9 15 -16 13 -11 14 -10 9 4 -5 14 -24 23 -24
12z"/>
<path d="M7147 10354 c-14 -14 -7 -43 13 -54 17 -9 20 -8 20 8 0 23 -23 56
-33 46z"/>
<path d="M7240 10330 c-13 -8 -13 -11 1 -25 14 -14 17 -14 22 -2 8 21 -6 38
-23 27z"/>
<path d="M5946 10308 c3 -13 14 -39 24 -58 9 -19 15 -44 13 -55 -1 -11 2 -7 8
9 10 23 8 36 -12 77 -23 50 -46 68 -33 27z"/>
<path d="M5805 10215 c7 -33 12 -41 21 -33 3 4 -2 19 -11 35 l-16 28 6 -30z"/>
<path d="M11302 10228 c-5 -7 -17 -28 -27 -47 -9 -19 -41 -58 -71 -87 -30 -30
-54 -63 -54 -74 0 -23 8 -25 33 -6 10 8 26 12 36 9 13 -3 22 4 32 26 8 17 17
31 21 31 14 0 128 118 128 133 0 25 -79 37 -98 15z"/>
<path d="M6722 10184 c-19 -21 -12 -70 11 -66 10 2 17 -3 17 -13 0 -8 5 -15
10 -15 9 0 12 11 9 38 0 4 -6 6 -14 4 -9 -2 -15 9 -17 32 -3 29 -5 32 -16 20z"/>
<path d="M11597 10141 c-15 -16 -40 -32 -56 -36 -17 -3 -41 -21 -56 -41 -27
-36 -23 -44 11 -19 10 8 27 15 37 15 17 0 17 -1 0 -31 -10 -17 -26 -37 -35
-43 -19 -12 -24 -36 -8 -36 5 0 18 9 29 21 11 12 25 19 32 17 8 -3 5 -11 -11
-26 -19 -17 -21 -24 -11 -36 10 -12 8 -16 -8 -21 -25 -8 -87 -78 -73 -83 20
-6 89 18 107 38 10 11 23 20 30 20 7 0 33 11 59 25 50 26 101 34 94 13 -2 -6
-19 -17 -37 -23 -35 -11 -111 -70 -111 -85 0 -4 9 -6 20 -3 11 3 20 0 20 -6 0
-6 6 -11 14 -11 7 0 16 -9 19 -21 3 -12 10 -18 16 -14 7 4 11 -5 11 -25 0 -19
6 -33 17 -37 9 -4 25 -15 35 -25 18 -18 19 -18 57 2 39 19 39 19 64 0 20 -16
41 -20 96 -20 68 0 70 -1 62 -22 -4 -11 -25 -28 -47 -37 -22 -9 -51 -26 -64
-39 -68 -63 -100 -98 -100 -108 0 -6 -11 -21 -25 -34 -14 -13 -25 -34 -25 -47
0 -13 -14 -47 -30 -76 -33 -58 -31 -75 6 -51 21 14 25 14 39 1 8 -9 15 -20 15
-26 0 -25 49 -22 94 4 55 32 93 31 88 -2 -4 -25 22 -33 32 -10 2 6 3 -9 2 -35
-2 -26 -17 -72 -35 -107 -34 -68 -32 -71 42 -50 22 6 42 8 45 4 3 -3 -20 -30
-51 -59 -34 -31 -60 -64 -63 -80 -4 -23 -1 -26 26 -26 45 0 39 -35 -10 -60
-35 -18 -120 -83 -120 -91 0 -5 12 -1 28 7 34 18 112 20 94 2 -17 -17 -15 -38
3 -38 8 0 15 -7 15 -15 0 -9 11 -20 25 -25 33 -13 33 -47 0 -62 -15 -7 -24
-18 -23 -27 4 -17 10 -18 76 -7 33 6 42 5 42 -6 0 -15 -52 -58 -69 -58 -5 0
-28 -9 -51 -19 l-43 -19 34 -17 33 -17 -26 -19 c-18 -13 -24 -25 -21 -39 6
-22 14 -25 28 -11 6 5 39 12 75 15 36 4 67 11 68 17 2 5 9 9 15 9 17 0 57 80
57 115 0 39 22 110 53 171 29 57 46 138 45 209 -1 55 15 208 32 299 11 58 60
177 84 206 28 33 176 340 176 366 0 10 7 27 15 37 8 11 14 42 14 72 0 43 -4
55 -18 60 -24 7 -51 -4 -51 -21 0 -8 -9 -14 -19 -14 -50 0 -63 -20 -34 -52 25
-28 -6 -24 -51 7 -20 14 -40 25 -43 25 -4 0 -14 7 -23 15 -28 25 -132 75 -157
75 -40 0 -38 -4 105 -168 20 -24 39 -47 40 -52 7 -19 -17 -9 -36 14 -13 17
-22 22 -29 15 -7 -7 -26 4 -59 35 -26 25 -52 46 -56 46 -19 0 -5 -28 33 -67
22 -24 39 -50 37 -59 -7 -35 -25 -19 -128 118 -11 14 -20 32 -20 38 0 15 -100
140 -112 140 -4 0 -8 -7 -8 -16 0 -13 -4 -13 -25 4 -18 15 -36 18 -77 16 -29
-2 -46 -1 -36 2 26 8 30 35 8 59 -11 12 -20 27 -20 33 0 7 -11 17 -24 23 -28
13 -71 -5 -62 -26 5 -13 -21 -25 -56 -25 -22 0 -24 26 -3 34 25 9 17 25 -25
46 -21 11 -41 20 -42 20 -2 0 -15 -13 -31 -29z m38 -191 c-3 -5 -14 -10 -23
-10 -15 0 -15 2 -2 10 20 13 33 13 25 0z m436 -81 c11 -11 18 -23 16 -26 -7
-6 -57 27 -57 38 0 15 19 10 41 -12z m314 -197 c2 -32 -11 -36 -29 -10 -12 17
-13 24 -3 30 18 12 30 4 32 -20z"/>
<path d="M6590 10147 c0 -8 7 -21 16 -28 14 -11 15 -10 12 11 -3 26 -28 41
-28 17z"/>
<path d="M10063 10145 c0 -8 4 -12 9 -9 4 3 8 -4 8 -15 0 -25 15 -35 28 -18 7
8 6 18 -4 31 -8 11 -14 16 -14 12 0 -5 -6 -3 -13 3 -10 8 -14 7 -14 -4z"/>
<path d="M12299 10118 c-7 -26 -5 -35 10 -33 9 2 19 4 24 4 4 1 7 6 7 12 0 5
-4 7 -10 4 -5 -3 -10 -1 -10 4 0 9 -18 16 -21 9z"/>
<path d="M10082 10060 c0 -14 2 -19 5 -12 2 6 2 18 0 25 -3 6 -5 1 -5 -13z"/>
<path d="M6280 9953 c0 -6 5 -15 10 -18 6 -4 8 -11 5 -16 -4 -5 -4 -9 -1 -9 2
0 11 -3 20 -6 11 -4 16 -1 16 10 0 9 -4 15 -9 14 -5 -2 -17 6 -25 17 -8 11
-16 15 -16 8z"/>
<path d="M10387 9874 c-3 -3 -2 -17 4 -31 5 -13 6 -35 3 -48 -3 -12 -1 -26 5
-29 13 -9 26 38 15 56 -5 7 -7 20 -6 30 3 17 -11 32 -21 22z"/>
<path d="M5490 9861 c0 -6 5 -13 10 -16 6 -3 10 1 10 9 0 9 -4 16 -10 16 -5 0
-10 -4 -10 -9z"/>
<path d="M9246 9843 c10 -40 14 -41 14 -5 0 18 -5 32 -10 32 -6 0 -8 -11 -4
-27z"/>
<path d="M9340 9851 c0 -5 5 -13 10 -16 6 -3 10 -2 10 4 0 5 -4 13 -10 16 -5
3 -10 2 -10 -4z"/>
<path d="M8991 9764 c0 -11 3 -14 6 -6 3 7 2 16 -1 19 -3 4 -6 -2 -5 -13z"/>
<path d="M10380 9704 c0 -23 1 -24 16 -10 8 9 12 20 9 26 -12 19 -25 10 -25
-16z"/>
<path d="M5260 9671 c0 -5 7 -14 15 -21 16 -14 18 -10 9 14 -6 17 -24 22 -24
7z"/>
<path d="M5560 9668 c0 -9 5 -20 10 -23 13 -8 13 5 0 25 -8 13 -10 13 -10 -2z"/>
<path d="M5550 9599 c1 -8 12 -27 26 -44 l25 -30 -3 29 c-3 30 -48 73 -48 45z"/>
<path d="M11814 9594 c-18 -14 -18 -15 4 -4 12 6 22 13 22 15 0 8 -5 6 -26
-11z"/>
<path d="M10746 9517 c3 -10 9 -15 12 -12 3 3 0 11 -7 18 -10 9 -11 8 -5 -6z"/>
<path d="M5080 9496 c0 -3 11 -16 25 -30 14 -14 25 -22 25 -18 0 3 21 -14 48
-39 49 -48 112 -95 112 -84 0 15 -116 125 -132 125 -9 0 -30 12 -47 26 -17 14
-31 23 -31 20z"/>
<path d="M5266 9485 c4 -8 11 -15 16 -15 6 0 5 6 -2 15 -7 8 -14 15 -16 15 -2
0 -1 -7 2 -15z"/>
<path d="M9072 9439 c-10 -26 -33 -189 -31 -224 1 -38 19 38 25 105 7 87 16
106 24 50 l7 -45 1 55 c2 67 -12 97 -26 59z"/>
<path d="M5020 9410 c23 -32 55 -53 72 -48 12 4 -66 78 -83 78 -6 0 -1 -14 11
-30z"/>
<path d="M9335 9315 c-6 -63 -43 -166 -63 -179 -5 -3 -15 -27 -22 -53 -6 -27
-16 -57 -20 -68 -5 -11 -11 -33 -15 -50 -6 -29 -6 -29 9 -10 8 11 16 24 16 29
0 5 24 59 53 120 45 93 55 122 59 183 7 92 -7 116 -17 28z"/>
<path d="M9173 9249 c-19 -53 -19 -59 -4 -45 21 19 44 87 33 98 -5 5 -18 -19
-29 -53z"/>
<path d="M9141 9264 c0 -11 3 -14 6 -6 3 7 2 16 -1 19 -3 4 -6 -2 -5 -13z"/>
<path d="M5166 9246 c7 -19 38 -22 32 -3 -3 6 -12 13 -21 15 -12 2 -15 -1 -11
-12z"/>
<path d="M9222 9238 c-14 -14 -17 -62 -3 -54 7 4 22 66 16 66 0 0 -6 -5 -13
-12z"/>
<path d="M9058 9194 c-5 -4 -8 -30 -7 -58 l1 -51 9 45 c10 49 8 76 -3 64z"/>
<path d="M9146 9115 c-3 -9 -6 -22 -5 -28 0 -7 5 -1 10 12 5 13 8 26 5 28 -2
2 -6 -3 -10 -12z"/>
<path d="M9506 9101 c-4 -7 -5 -15 -2 -18 9 -9 19 4 14 18 -4 11 -6 11 -12 0z"/>
<path d="M4271 8881 c-8 -5 -20 -7 -28 -4 -7 3 -13 1 -13 -5 0 -5 -9 -12 -21
-15 -18 -5 -20 -11 -14 -36 5 -23 3 -33 -9 -37 -19 -7 -21 -50 -3 -68 27 -27
63 -46 85 -46 14 0 26 -8 31 -22 5 -14 10 -17 15 -10 4 7 20 12 37 12 19 0 29
5 29 15 0 19 33 19 70 0 19 -10 30 -11 30 -5 0 8 16 9 48 5 l47 -6 -25 20
c-14 11 -29 21 -33 21 -4 0 -27 9 -49 20 -23 11 -49 20 -59 20 -9 0 -39 19
-67 42 -44 37 -48 44 -34 54 14 10 15 14 2 30 -14 16 -13 17 5 10 43 -17 50
-17 31 -2 -22 18 -53 20 -75 7z"/>
<path d="M4358 8803 c7 -3 16 -2 19 1 4 3 -2 6 -13 5 -11 0 -14 -3 -6 -6z"/>
<path d="M6374 8725 c-16 -19 -14 -34 6 -45 11 -6 20 -7 20 -3 0 4 5 1 11 -7
8 -12 9 -10 4 9 -5 16 -4 21 4 17 6 -4 11 0 11 8 0 9 5 16 10 16 6 0 10 4 10
9 0 12 -65 9 -76 -4z"/>
<path d="M4120 8680 c0 -5 -9 -10 -20 -10 -30 0 -24 -19 8 -26 35 -9 54 -24
48 -40 -3 -7 2 -15 10 -18 22 -9 23 -8 17 15 -4 12 0 25 8 30 11 8 8 15 -16
34 -31 26 -55 32 -55 15z"/>
<path d="M4321 8623 c-1 -13 1 -23 3 -23 2 0 13 -3 23 -6 16 -5 16 -4 2 8 -9
7 -18 20 -22 28 -4 10 -6 8 -6 -7z"/>
<path d="M4370 8598 c0 -18 18 -34 28 -24 3 4 -2 14 -11 23 -16 16 -17 16 -17
1z"/>
<path d="M4415 8590 c3 -5 15 -10 26 -10 10 0 19 5 19 10 0 6 -12 10 -26 10
-14 0 -23 -4 -19 -10z"/>
<path d="M4060 8573 c0 -12 51 -33 77 -33 27 0 29 6 9 26 -15 14 -86 20 -86 7z"/>
<path d="M4200 8567 c0 -23 22 -35 68 -35 23 -1 42 1 42 3 0 5 -58 31 -87 40
-16 4 -23 2 -23 -8z"/>
<path d="M4495 8470 c3 -5 8 -10 11 -10 2 0 4 5 4 10 0 6 -5 10 -11 10 -5 0
-7 -4 -4 -10z"/>
<path d="M4134 8449 c-7 -13 9 -26 44 -35 33 -9 38 3 11 25 -27 23 -45 26 -55
10z"/>
<path d="M4135 8350 c17 -7 17 -9 3 -9 -10 -1 -18 -6 -18 -11 0 -15 39 -28
110 -36 84 -9 78 14 -9 36 -34 9 -58 19 -55 23 4 4 -6 7 -22 6 -25 0 -26 -2
-9 -9z"/>
<path d="M11810 8311 c0 -29 36 -69 50 -54 9 8 7 16 -9 32 -12 12 -19 26 -16
31 4 6 -1 10 -9 10 -9 0 -16 -8 -16 -19z"/>
<path d="M4380 8240 c-9 -6 -10 -10 -3 -10 6 0 15 5 18 10 8 12 4 12 -15 0z"/>
<path d="M4315 8229 c-4 -5 3 -9 14 -9 11 0 22 4 25 8 2 4 -4 8 -14 9 -11 1
-22 -2 -25 -8z"/>
<path d="M7059 8218 c-1 -7 -1 -20 0 -28 0 -10 -1 -11 -5 -2 -3 6 -10 12 -16
12 -6 0 -4 -8 5 -18 10 -10 14 -22 10 -27 -5 -4 -3 -6 2 -2 11 6 20 77 10 77
-3 0 -6 -6 -6 -12z"/>
<path d="M7325 8170 c3 -5 14 -10 23 -10 15 0 15 2 2 10 -20 13 -33 13 -25 0z"/>
<path d="M7165 8081 c-3 -5 -2 -12 3 -15 5 -3 9 1 9 9 0 17 -3 19 -12 6z"/>
<path d="M7182 8020 c0 -14 2 -19 5 -12 2 6 2 18 0 25 -3 6 -5 1 -5 -13z"/>
<path d="M4208 7888 c5 -5 16 -8 23 -6 8 3 3 7 -10 11 -17 4 -21 3 -13 -5z"/>
<path d="M4205 7817 c-14 -11 -15 -16 -5 -22 11 -7 29 9 30 28 0 10 -3 9 -25
-6z"/>
<path d="M4280 7820 c0 -5 5 -10 10 -10 6 0 10 5 10 10 0 6 -4 10 -10 10 -5 0
-10 -4 -10 -10z"/>
<path d="M4428 7783 c-22 -6 -33 -40 -18 -58 7 -9 29 -15 50 -15 21 0 45 -3
54 -6 23 -9 20 -27 -3 -21 -13 3 -18 0 -15 -7 3 -8 17 -11 34 -8 17 2 30 0 30
-5 0 -13 63 -40 124 -53 27 -6 60 -20 75 -31 l26 -21 -40 8 c-22 4 -83 25
-135 46 -85 35 -102 39 -163 35 -37 -2 -70 -1 -72 3 -2 3 2 19 10 34 11 20 12
33 5 47 -12 21 -36 25 -42 7 -3 -8 -36 -14 -89 -18 -83 -5 -84 -5 -54 -20 17
-9 48 -17 70 -18 53 -4 72 -20 45 -39 -11 -8 -24 -12 -29 -9 -4 3 -16 -3 -26
-14 -10 -11 -15 -20 -10 -20 4 0 14 8 21 18 10 12 13 13 9 2 -6 -18 60 -50
105 -50 20 0 30 -5 30 -15 0 -8 -9 -15 -20 -15 -27 0 -25 -15 3 -26 27 -11 97
-6 97 6 0 5 -11 12 -24 16 -31 7 -43 34 -16 34 11 0 20 -5 20 -10 0 -6 11 -8
27 -4 22 6 25 4 20 -10 -7 -17 -6 -17 33 -21 133 -11 293 -8 285 5 -8 13 9 13
76 -1 30 -5 72 -12 94 -14 198 -17 327 -40 527 -94 274 -74 347 -106 853 -372
205 -108 244 -119 280 -79 10 11 16 22 14 24 -2 2 -44 24 -94 49 -83 42 -144
68 -310 132 -33 13 -73 30 -90 39 -16 9 -36 16 -43 16 -8 0 -26 6 -40 14 -39
21 -182 79 -297 121 -55 20 -109 40 -120 45 -52 24 -205 75 -345 116 -85 24
-200 58 -255 75 -55 17 -120 37 -145 44 -25 8 -112 35 -195 61 -136 43 -220
64 -267 67 -10 1 -18 5 -18 9 0 8 -13 9 -42 1z m59 -49 c-3 -3 -12 -4 -19 -1
-8 3 -5 6 6 6 11 1 17 -2 13 -5z m270 -120 c-3 -3 -12 -4 -19 -1 -8 3 -5 6 6
6 11 1 17 -2 13 -5z m40 -10 c-3 -3 -12 -4 -19 -1 -8 3 -5 6 6 6 11 1 17 -2
13 -5z"/>
<path d="M4167 7473 c-16 -16 -4 -29 28 -31 39 -3 79 14 70 29 -7 10 -88 13
-98 2z"/>
<path d="M4865 7470 c-11 -5 -48 -14 -82 -21 -35 -7 -63 -17 -63 -22 0 -5 -7
-4 -15 3 -9 8 -28 10 -52 6 -21 -4 -56 -9 -78 -11 -82 -9 -117 -18 -122 -31
-3 -8 -10 -14 -17 -14 -28 -1 -37 -16 -25 -43 10 -22 19 -27 50 -27 21 0 49 4
63 10 18 6 40 5 75 -6 53 -15 72 -31 51 -44 -12 -8 22 -21 69 -26 58 -7 26
-14 -60 -13 -73 0 -101 5 -126 19 -26 15 -42 17 -86 11 -29 -4 -63 -3 -74 2
-14 6 -28 5 -39 -2 -17 -9 -16 -10 9 -11 16 0 35 -7 44 -15 10 -11 27 -14 56
-10 87 10 96 10 99 0 2 -5 -9 -10 -25 -11 -40 -1 -43 -10 -12 -38 32 -29 51
-32 79 -11 16 12 17 18 8 27 -7 7 -12 16 -12 20 0 12 38 10 45 -2 4 -6 11 -8
16 -4 14 8 61 -5 54 -15 -3 -5 -13 -7 -24 -4 -22 6 -68 -17 -95 -46 -19 -21
-19 -21 3 -21 12 0 19 -4 16 -10 -4 -6 6 -10 22 -10 15 0 45 -3 66 -6 36 -6
36 -7 18 -21 -23 -15 -95 -12 -128 5 -11 6 -23 8 -27 4 -4 -3 -11 0 -16 8 -8
13 -10 13 -10 -1 0 -22 -154 -46 -176 -28 -18 14 -152 15 -167 0 -12 -12 -3
-16 54 -25 20 -4 44 -15 53 -25 13 -14 28 -17 64 -15 81 6 126 16 157 34 32
19 81 21 78 3 -4 -18 70 -25 83 -8 10 13 14 12 29 -5 17 -19 58 -29 53 -12 -2
4 2 7 7 7 6 0 9 -3 8 -6 -1 -3 49 -4 110 -3 62 2 128 -1 148 -7 20 -5 125 -16
235 -24 240 -18 469 -48 624 -81 235 -51 317 -65 407 -69 88 -5 93 -4 115 20
17 18 35 25 66 27 23 1 47 7 52 13 14 17 -48 71 -100 86 -22 7 -40 16 -40 21
0 4 -7 8 -15 8 -9 0 -38 18 -66 39 -27 22 -95 63 -152 92 -56 28 -120 62 -142
75 -52 29 -322 133 -450 173 -171 52 -336 82 -490 86 -77 3 -149 7 -160 9 -11
2 -29 0 -40 -4z m-248 -66 c-3 -3 -12 -4 -19 -1 -8 3 -5 6 6 6 11 1 17 -2 13
-5z m95 -46 c-12 -12 -35 -1 -27 12 3 5 13 6 21 3 10 -4 12 -9 6 -15z m13 -38
c3 -5 1 -10 -4 -10 -6 0 -11 5 -11 10 0 6 2 10 4 10 3 0 8 -4 11 -10z m75
-152 c0 -4 -4 -8 -9 -8 -6 0 -12 4 -15 8 -3 5 1 9 9 9 8 0 15 -4 15 -9z m130
-86 c0 -10 -176 -10 -186 1 -4 4 36 7 89 7 54 0 97 -4 97 -8z"/>
<path d="M4300 7347 c0 -24 24 -37 65 -36 l40 2 -35 7 c-28 5 -31 8 -17 14 28
13 19 26 -18 26 -22 0 -35 -5 -35 -13z"/>
<path d="M4564 7281 c10 -16 45 -19 57 -5 9 12 5 14 -25 14 -21 0 -35 -4 -32
-9z"/>
<path d="M6961 7236 c-11 -14 -11 -16 4 -16 10 0 29 -12 42 -26 13 -14 27 -23
31 -20 3 4 -10 23 -29 42 -31 31 -37 33 -48 20z"/>
<path d="M8527 7203 c-75 -40 -76 -50 -8 -122 33 -33 63 -61 68 -61 16 1 63
88 63 116 0 38 -35 94 -57 93 -10 0 -40 -12 -66 -26z"/>
<path d="M6796 7212 c-6 -11 114 -98 128 -94 6 2 19 5 28 7 46 9 49 20 16 45
-48 36 -159 63 -172 42z"/>
<path d="M4305 7190 c3 -5 13 -10 21 -10 8 0 14 5 14 10 0 6 -9 10 -21 10 -11
0 -17 -4 -14 -10z"/>
<path d="M4370 7180 c0 -12 17 -12 45 0 17 7 15 9 -12 9 -18 1 -33 -3 -33 -9z"/>
<path d="M4370 7140 c0 -5 6 -10 14 -10 8 0 18 5 21 10 3 6 -3 10 -14 10 -12
0 -21 -4 -21 -10z"/>
<path d="M9056 7089 c-31 -36 -39 -62 -34 -115 4 -52 28 -56 70 -11 42 45 92
71 147 77 25 3 46 10 48 16 5 14 -40 34 -76 34 -15 0 -36 7 -47 15 -33 25 -79
19 -108 -16z"/>
<path d="M9952 6973 c4 -22 48 -31 48 -10 0 14 -20 27 -42 27 -5 0 -8 -8 -6
-17z"/>
<path d="M4995 6935 c-29 -13 -28 -13 35 -14 138 -3 533 -40 540 -52 5 -7 37
-12 82 -13 43 0 81 -6 90 -13 8 -7 18 -10 21 -6 4 3 7 1 7 -5 0 -15 -89 -16
-127 -1 -72 28 -757 46 -926 24 l-57 -7 21 -19 c18 -16 19 -19 6 -19 -10 0
-17 -5 -17 -11 0 -11 45 -8 103 6 30 8 39 -12 10 -21 -10 -3 -36 -14 -58 -25
-36 -17 -37 -19 -15 -20 14 -1 46 -1 73 1 28 1 47 -2 47 -9 0 -13 -31 -30 -47
-24 -6 2 -14 -1 -18 -6 -4 -7 12 -11 47 -11 30 0 59 -5 66 -12 6 -6 41 -11 84
-10 40 0 64 -2 53 -5 -11 -3 -25 -12 -31 -21 -7 -9 -20 -13 -37 -10 -15 3 -24
1 -21 -3 7 -13 -30 -11 -42 1 -8 8 -33 5 -85 -10 -41 -12 -84 -23 -95 -26 -12
-2 -37 -10 -55 -18 -19 -7 -41 -11 -49 -9 -13 4 -13 3 0 -6 18 -12 11 -20 -22
-23 -15 -1 -34 -15 -49 -35 -14 -20 -33 -33 -46 -33 -23 0 -29 -10 -16 -23 3
-4 12 -2 19 4 17 14 74 29 74 19 0 -4 9 -10 21 -13 12 -3 19 -9 16 -14 -3 -4
18 -6 46 -4 42 3 59 10 94 41 49 42 91 52 188 40 56 -6 58 -7 28 -15 -22 -5
-33 -14 -33 -25 0 -23 -28 -46 -52 -42 -25 4 -23 -15 2 -23 11 -4 17 -11 14
-17 -5 -8 -1 -9 12 -4 15 5 16 4 7 -5 -14 -14 -6 -39 14 -39 18 0 44 -25 35
-34 -9 -10 30 5 45 17 7 5 19 7 27 4 8 -3 17 -1 20 6 3 7 3 0 0 -15 -5 -24 -3
-28 17 -28 19 0 21 2 9 10 -12 8 -12 10 5 10 16 0 17 2 6 9 -11 7 -7 14 20 30
19 12 38 21 43 21 5 0 17 6 25 14 9 7 33 16 54 19 35 5 36 5 26 -15 -7 -13
-17 -18 -30 -15 -10 3 -19 1 -19 -5 0 -5 -5 -6 -10 -3 -6 4 -20 -5 -32 -20
-11 -15 -30 -31 -42 -35 -19 -8 -19 -9 6 -9 15 -1 30 4 33 9 8 12 45 13 45 1
0 -15 -116 -61 -157 -63 -26 -1 -40 -6 -40 -15 0 -7 5 -13 11 -13 6 0 5 -5 -2
-12 -8 -8 -18 -9 -35 -1 -14 7 -29 8 -38 2 -22 -14 -101 -11 -97 4 3 6 14 13
26 15 12 2 22 9 22 15 0 8 -16 11 -47 9 -38 -2 -45 -1 -33 8 13 10 12 11 -3 6
-10 -3 -23 -6 -29 -6 -6 0 -8 -9 -5 -20 4 -16 -2 -20 -40 -26 -32 -5 -48 -3
-53 6 -6 10 -13 8 -29 -7 l-20 -19 20 -18 c12 -10 28 -15 37 -11 15 6 15 8 -2
14 -15 6 -17 9 -6 16 8 5 17 2 24 -7 6 -8 16 -13 23 -11 7 3 20 0 29 -5 15 -8
11 -14 -25 -38 -32 -21 -44 -25 -50 -15 -12 19 -77 -2 -107 -34 -13 -14 -24
-27 -24 -28 0 -1 15 -2 34 -2 19 0 32 2 30 4 -2 2 1 10 6 17 13 14 53 6 43 -9
-4 -6 -1 -7 8 -2 13 9 34 9 147 -1 31 -2 63 1 75 8 12 7 48 13 79 13 33 1 81
12 114 25 52 22 55 24 33 32 -14 6 -31 5 -44 -1 -29 -15 -167 -19 -172 -5 -2
7 17 13 51 16 31 3 64 11 73 20 16 14 100 36 163 43 14 2 27 4 30 5 3 1 13 1
24 0 11 -1 16 3 11 9 -3 6 1 14 10 17 9 4 14 13 11 20 -3 8 -1 14 4 14 6 0 10
-4 10 -10 0 -5 14 -7 33 -3 37 7 60 23 33 23 -10 0 -14 5 -11 11 8 12 101 3
125 -13 11 -7 10 -8 -8 -5 -33 7 -53 -16 -39 -46 11 -23 13 -23 54 -11 24 7
47 16 52 18 5 3 55 13 112 22 57 8 109 17 114 18 6 2 24 6 40 10 87 20 104 29
110 55 4 21 12 26 35 27 35 1 38 -9 9 -29 -28 -20 -9 -30 38 -21 21 4 32 9 25
11 -6 3 -10 9 -6 14 3 5 -2 9 -10 9 -9 0 -16 4 -16 10 0 5 3 9 8 8 17 -5 115
14 105 20 -6 4 -15 20 -18 35 -7 25 -6 27 21 22 22 -5 36 0 58 20 23 20 25 25
11 25 -11 0 -15 5 -11 16 3 9 6 17 6 18 0 1 15 1 33 0 26 -1 27 0 4 3 -15 2
-25 9 -22 14 4 5 -2 9 -11 9 -10 0 -14 3 -11 7 4 3 50 7 103 7 80 1 97 4 105
19 6 9 19 17 29 17 22 0 32 13 25 32 -6 16 -75 17 -127 3 -18 -5 -28 -3 -28 4
0 6 6 12 13 12 6 1 -14 5 -45 9 -31 4 -64 15 -73 24 -30 30 -63 40 -235 75
-30 6 -62 16 -70 21 -27 17 41 11 174 -15 153 -30 172 -31 131 -7 -16 10 -66
26 -110 35 -44 9 -131 30 -194 47 -62 16 -168 37 -235 45 -66 8 -161 22 -211
30 -117 19 -368 19 -410 0z m-100 -125 c4 -6 -5 -10 -20 -10 -15 0 -24 4 -20
10 3 6 12 10 20 10 8 0 17 -4 20 -10z m195 -140 c0 -5 -4 -10 -9 -10 -6 0 -13
5 -16 10 -3 6 1 10 9 10 9 0 16 -4 16 -10z m529 -14 c-11 -9 -69 -15 -64 -6 3
6 20 10 37 10 17 0 29 -2 27 -4z m-742 -32 c-3 -3 -12 -4 -19 -1 -8 3 -5 6 6
6 11 1 17 -2 13 -5z m1181 -21 c-10 -2 -28 -2 -40 0 -13 2 -5 4 17 4 22 1 32
-1 23 -4z m-958 -48 c0 -2 -14 -12 -31 -21 -21 -11 -35 -12 -42 -5 -6 6 1 13
24 19 41 12 49 13 49 7z m1054 -10 c-6 -16 -24 -21 -24 -7 0 11 11 22 21 22 5
0 6 -7 3 -15z m-889 -25 c3 -5 1 -10 -4 -10 -6 0 -11 5 -11 10 0 6 2 10 4 10
3 0 8 -4 11 -10z m-207 -31 c-2 -6 -8 -10 -13 -10 -5 0 -11 4 -13 10 -2 6 4
11 13 11 9 0 15 -5 13 -11z m174 -11 c-9 -9 -15 -9 -24 0 -9 9 -7 12 12 12 19
0 21 -3 12 -12z m-262 -57 c0 -11 -39 -25 -47 -18 -3 3 -2 10 2 16 8 13 45 15
45 2z m401 -14 c-6 -8 -23 -12 -42 -9 -38 6 -20 22 25 22 22 0 26 -3 17 -13z
m-16 -67 c0 -10 -14 -17 -40 -21 -22 -3 -49 -9 -61 -12 -13 -5 -25 -2 -32 6
-9 11 -7 16 11 25 54 26 122 28 122 2z m503 13 c-10 -2 -28 -2 -40 0 -13 2 -5
4 17 4 22 1 32 -1 23 -4z m-768 -123 c0 -5 -7 -10 -16 -10 -8 0 -12 5 -9 10 3
6 10 10 16 10 5 0 9 -4 9 -10z"/>
<path d="M11920 6816 c-58 -19 -181 -62 -274 -95 -165 -60 -314 -94 -511 -116
-75 -8 -146 -25 -163 -38 -7 -5 -33 -12 -59 -14 -71 -6 -82 -15 -69 -58 6 -19
17 -35 23 -35 17 0 17 -17 1 -24 -18 -8 55 2 132 18 36 8 117 24 180 36 63 12
153 30 200 41 452 102 580 133 689 169 52 16 99 30 105 30 7 0 12 21 13 49 1
58 0 59 -95 66 -57 4 -82 0 -172 -29z"/>
<path d="M10504 6740 c17 -6 36 -5 45 0 11 7 3 9 -29 9 -42 -1 -43 -1 -16 -9z"/>
<path d="M4610 6721 c-17 -33 -11 -48 10 -22 11 13 20 18 20 12 0 -6 9 -11 20
-11 19 0 19 1 3 20 -22 25 -39 25 -53 1z"/>
<path d="M4560 6691 c0 -12 6 -21 15 -21 8 0 15 3 15 6 0 3 -7 12 -15 20 -13
14 -15 13 -15 -5z"/>
<path d="M6430 6691 c0 -15 16 -22 35 -15 13 5 14 8 3 15 -18 12 -38 11 -38 0z"/>
<path d="M4417 6682 c-17 -4 -17 -5 -1 -16 12 -10 23 -10 40 -2 45 21 23 31
-39 18z"/>
<path d="M10631 6621 c-11 -7 -8 -12 11 -25 19 -12 37 -15 67 -10 40 6 41 7
25 25 -18 20 -78 26 -103 10z"/>
<path d="M10760 6612 c0 -16 13 -20 35 -11 11 4 15 8 8 8 -6 1 -18 4 -27 7 -9
3 -16 1 -16 -4z"/>
<path d="M11885 6600 l-20 -9 20 0 c11 0 29 4 40 9 l20 9 -20 0 c-11 0 -29 -4
-40 -9z"/>
<path d="M12065 6593 c-16 -2 -84 -20 -150 -38 -66 -19 -178 -48 -250 -64 -71
-17 -143 -35 -160 -40 -35 -12 -256 -57 -368 -77 -42 -7 -82 -16 -87 -19 -5
-3 -42 -6 -82 -6 -69 0 -166 -13 -176 -24 -9 -9 32 -47 68 -61 27 -12 44 -13
74 -5 22 5 43 8 46 6 6 -3 117 6 230 20 25 3 104 12 175 20 277 31 666 95 712
117 22 11 22 11 3 28 -24 21 -25 30 -5 30 27 0 16 19 -20 34 -40 17 -48 31 -9
16 35 -14 40 -13 69 14 l25 24 -25 16 c-13 9 -28 15 -32 15 -4 -1 -21 -4 -38
-6z"/>
<path d="M11805 6583 c-16 -3 -88 -20 -160 -38 -71 -18 -148 -36 -170 -39 -70
-11 -220 -49 -229 -58 -27 -23 129 6 388 72 221 56 283 79 171 63z"/>
<path d="M4837 6488 c-9 -5 -17 -16 -17 -23 0 -19 44 -20 58 -2 15 18 -18 38
-41 25z"/>
<path d="M6293 6424 c-13 -14 -23 -27 -23 -28 0 -1 16 -2 35 -2 25 1 34 5 30
14 -3 8 -5 20 -5 28 0 21 -12 17 -37 -12z"/>
<path d="M4530 6422 c-13 -14 -12 -15 4 -9 10 4 24 7 32 7 20 0 17 16 -3 17
-10 1 -25 -6 -33 -15z"/>
<path d="M11125 6430 c-11 -4 -40 -13 -65 -19 -42 -9 -40 -10 23 -5 38 3 87
12 110 19 l42 13 -45 0 c-25 1 -54 -3 -65 -8z"/>
<path d="M4797 6423 c-14 -13 -6 -20 18 -15 14 2 22 8 19 13 -6 11 -28 12 -37
2z"/>
<path d="M5935 6370 c-16 -7 -17 -9 -3 -9 9 -1 20 4 23 9 7 11 7 11 -20 0z"/>
<path d="M6103 6367 c-24 -6 -43 -13 -43 -17 0 -8 77 4 87 14 12 11 -2 12 -44
3z"/>
<path d="M11915 6334 c-98 -15 -168 -25 -345 -49 -63 -9 -134 -20 -158 -26
-23 -5 -64 -9 -90 -10 -26 0 -55 -4 -65 -8 -16 -6 -17 -9 -5 -19 8 -6 25 -16
39 -22 19 -8 13 -9 -26 -3 -57 9 -113 8 -203 -2 l-62 -7 35 -34 c20 -18 53
-38 73 -44 20 -6 48 -17 62 -25 23 -14 19 -15 -52 -9 -85 7 -105 -5 -43 -26
19 -6 35 -16 35 -21 0 -6 4 -8 9 -4 5 3 12 1 15 -4 3 -4 20 -11 38 -15 23 -5
29 -9 20 -15 -10 -6 -4 -10 20 -14 73 -14 278 -37 363 -41 50 -3 116 -8 148
-12 45 -5 61 -4 67 6 7 11 11 11 24 0 17 -13 166 -26 166 -15 0 4 -10 15 -22
25 -21 17 -21 19 -6 25 10 4 32 2 50 -4 28 -10 35 -9 45 5 10 14 9 19 -4 29
-10 7 -22 12 -28 11 -5 -2 -7 -1 -4 1 8 5 -1 52 -12 59 -18 11 -8 23 19 23 22
0 52 4 81 10 2 1 -1 7 -8 14 -8 10 -7 17 1 25 9 9 9 12 0 12 -23 0 -13 40 13
52 30 13 32 24 6 31 -11 2 -21 15 -23 28 -3 21 -9 24 -50 27 -51 3 -58 11 -32
33 13 11 20 11 43 -2 27 -16 51 -15 51 1 0 9 -66 31 -85 29 -5 -1 -50 -8 -100
-15z m165 -74 c0 -5 -5 -10 -11 -10 -5 0 -7 5 -4 10 3 6 8 10 11 10 2 0 4 -4
4 -10z m-772 -136 c50 -18 57 -39 10 -29 -59 13 -138 42 -131 49 9 8 67 -1
121 -20z m757 6 c4 -6 -5 -10 -19 -10 -14 0 -26 5 -26 10 0 6 9 10 19 10 11 0
23 -4 26 -10z m-518 -56 c-3 -3 -12 -4 -19 -1 -8 3 -5 6 6 6 11 1 17 -2 13 -5z
m-129 -46 c-3 -7 -18 -14 -34 -16 l-29 -3 25 15 c32 18 43 19 38 4z m-85 -15
c-13 -2 -33 -2 -45 0 -13 2 -3 4 22 4 25 0 35 -2 23 -4z"/>
<path d="M4689 6330 c-11 -7 -10 -10 4 -16 19 -7 73 4 63 13 -10 10 -52 12
-67 3z"/>
<path d="M4613 6293 c-24 -9 -13 -24 15 -21 15 2 26 8 25 13 -2 12 -23 16 -40
8z"/>
<path d="M4456 6281 c-10 -16 18 -29 43 -20 13 5 22 11 20 13 -11 9 -59 15
-63 7z"/>
<path d="M5275 6215 c-14 -17 -30 -25 -52 -25 -18 0 -33 -4 -33 -9 0 -5 -10
-12 -22 -16 -21 -6 -21 -8 -4 -12 10 -3 37 2 60 10 22 8 60 20 84 27 51 16 64
30 28 30 -14 0 -26 5 -26 10 0 17 -14 11 -35 -15z"/>
<path d="M5652 6199 c-94 -21 -152 -43 -152 -58 0 -5 -24 -10 -52 -10 -79 0
-198 -42 -198 -68 0 -11 4 -11 22 1 32 22 48 19 19 -3 l-24 -19 28 -14 c26
-14 33 -13 84 7 31 12 79 36 107 52 28 17 71 33 95 36 52 5 196 59 218 82 14
13 11 15 -24 14 -22 -1 -77 -10 -123 -20z"/>
<path d="M6195 6150 c-3 -5 -13 -10 -22 -10 -8 0 -29 -6 -46 -14 -18 -7 -76
-26 -130 -41 -95 -27 -97 -28 -80 -47 14 -15 25 -18 53 -13 19 4 73 11 120 16
122 14 132 15 162 27 33 14 45 32 27 43 -11 7 -11 11 -1 17 9 6 0 12 -26 20
-48 15 -49 15 -57 2z"/>
<path d="M7752 6113 c-6 -2 -10 -9 -7 -13 7 -11 35 -2 35 11 0 10 -8 10 -28 2z"/>
<path d="M5185 6054 c-5 -2 -29 -8 -52 -14 -41 -10 -59 -30 -28 -30 8 0 15 5
15 10 0 6 18 10 39 10 22 0 42 4 46 9 6 11 -5 20 -20 15z"/>
<path d="M7658 6037 c-40 -23 -52 -62 -24 -73 21 -8 41 6 69 48 37 53 19 63
-45 25z"/>
<path d="M4720 6040 c0 -5 4 -10 9 -10 6 0 13 5 16 10 3 6 -1 10 -9 10 -9 0
-16 -4 -16 -10z"/>
<path d="M5018 5998 c-21 -6 -38 -14 -38 -19 0 -5 -9 -9 -19 -9 -11 0 -23 -5
-26 -10 -4 -7 3 -8 22 -4 15 4 32 7 36 8 5 0 13 -9 18 -22 8 -22 7 -23 -21
-17 -29 6 -43 -8 -17 -18 6 -3 2 -6 -10 -6 -16 -1 -21 3 -17 14 8 20 -29 20
-64 0 -15 -8 -44 -21 -64 -29 -21 -8 -38 -20 -38 -26 0 -6 -10 -15 -22 -20
-37 -16 66 -6 142 13 36 9 78 19 94 23 16 3 48 25 73 51 l45 46 -35 -6 c-45
-7 -54 2 -25 25 26 20 20 21 -34 6z"/>
<path d="M5163 5987 c-31 -6 -40 -12 -36 -22 6 -16 33 -21 33 -6 0 4 23 11 52
14 28 4 55 10 59 14 11 11 -55 11 -108 0z"/>
<path d="M5725 5988 c-9 -6 -35 -7 -57 -4 -41 7 -69 -1 -49 -14 9 -5 8 -10 -4
-20 -8 -7 -15 -8 -15 -3 0 4 -18 7 -41 5 -29 -3 -39 -8 -35 -18 4 -9 -2 -14
-18 -14 -12 0 -43 -11 -67 -25 -24 -14 -57 -31 -73 -39 -23 -11 -25 -14 -11
-19 9 -4 13 -11 10 -17 -3 -6 5 -10 19 -10 13 0 26 -4 28 -9 2 -5 15 -7 30 -4
15 3 25 9 23 14 -3 4 3 13 14 19 13 7 22 7 26 0 3 -5 15 -10 26 -10 40 0 16
-17 -53 -37 -76 -23 -79 -23 -168 -23 -59 0 -105 -17 -135 -50 -30 -33 -11
-33 47 -1 74 42 86 39 38 -8 -23 -22 -37 -42 -32 -45 9 -5 63 12 97 31 11 6
44 13 73 15 43 4 52 2 47 -10 -4 -10 0 -12 11 -8 8 3 21 6 27 6 7 0 4 7 -6 14
-16 13 -16 15 13 24 16 6 30 7 30 2 0 -5 13 -2 30 6 16 9 44 14 62 12 l33 -3
-35 -23 c-19 -12 -46 -21 -60 -20 -29 3 -53 -9 -45 -22 3 -5 -4 -14 -15 -20
-12 -7 -19 -18 -16 -25 6 -16 -27 -41 -88 -69 -29 -14 -35 -20 -25 -27 8 -5
24 -9 37 -9 25 0 188 55 206 69 14 11 66 20 66 12 0 -15 -26 -31 -49 -31 -26
0 -98 -49 -73 -50 6 0 12 -5 12 -11 0 -5 -4 -8 -9 -5 -5 4 -4 -7 2 -23 10 -26
13 -28 38 -19 18 6 26 15 22 24 -3 9 1 14 12 14 11 0 15 -5 11 -15 -5 -13 -2
-14 15 -4 11 6 43 16 71 24 60 15 52 3 -27 -42 -91 -51 -115 -68 -115 -80 0
-18 10 -16 74 12 31 14 63 25 72 25 8 0 19 10 24 23 5 12 9 17 9 11 1 -17 47
-26 68 -15 21 12 114 51 120 51 2 0 -5 -10 -17 -22 -11 -12 -20 -25 -20 -30 0
-11 18 -10 25 2 4 6 22 9 41 7 27 -4 34 -1 34 14 0 10 9 24 21 32 20 15 69 76
69 87 0 3 -26 -17 -57 -46 -31 -29 -60 -51 -65 -48 -5 3 -6 10 -3 15 4 5 -2 6
-12 2 -10 -3 3 14 30 39 26 25 47 49 47 53 0 3 -17 4 -39 2 -35 -3 -38 -2 -33
17 3 12 22 39 43 61 21 22 36 41 34 43 -2 2 -20 -7 -42 -20 -21 -13 -50 -29
-65 -35 -22 -10 -27 -9 -31 7 -5 21 0 31 33 54 22 15 22 17 5 14 -11 -1 -26 1
-34 6 -7 5 -16 5 -20 0 -3 -5 -25 -22 -48 -37 -24 -15 -43 -32 -43 -37 0 -6
-5 -10 -11 -10 -5 0 -7 5 -3 11 4 7 1 10 -7 7 -8 -3 -13 -12 -11 -19 3 -11 1
-11 -9 -2 -17 17 8 44 61 68 22 10 40 22 40 27 0 4 7 8 15 8 8 0 15 8 15 18 0
29 19 43 41 29 14 -9 22 -7 38 7 11 10 24 15 30 11 7 -3 8 0 5 9 -3 9 -12 16
-19 16 -7 0 -15 4 -17 9 -1 5 -25 -2 -53 -14 -73 -34 -174 -66 -218 -70 -21
-2 -45 -9 -53 -16 -8 -6 -17 -9 -21 -5 -9 8 -7 9 67 36 40 14 80 37 105 61 27
26 49 39 68 39 16 0 26 -4 22 -10 -9 -15 51 -12 64 3 8 10 7 17 -1 25 -9 9 -6
18 13 38 l24 26 -45 -6 c-43 -7 -44 -6 -25 10 l20 17 -20 -8 c-11 -4 -33 -9
-50 -12 -16 -3 -38 -9 -47 -14 -26 -14 -37 -11 -31 10 4 14 -1 19 -20 19 -13
0 -32 -5 -42 -10z m32 -44 c-3 -3 -12 -4 -19 -1 -8 3 -5 6 6 6 11 1 17 -2 13
-5z m143 -288 c0 -2 -8 -10 -17 -17 -16 -13 -17 -12 -4 4 13 16 21 21 21 13z
m-190 -20 c0 -8 -7 -16 -15 -20 -15 -5 -21 14 -8 27 11 12 23 8 23 -7z m180
-86 c-28 -22 -40 -25 -40 -10 0 6 10 15 23 20 37 15 44 11 17 -10z"/>
<path d="M6181 5971 c-18 -10 -38 -25 -43 -34 -5 -9 -15 -17 -22 -17 -14 0
-30 -29 -22 -38 3 -2 19 0 35 6 24 9 31 8 31 -2 0 -10 10 -9 39 6 37 18 40 22
37 56 -4 43 -10 45 -55 23z"/>
<path d="M7590 5955 c-8 -9 -8 -15 -2 -15 12 0 26 19 19 26 -2 2 -10 -2 -17
-11z"/>
<path d="M4530 5935 c-7 -8 -9 -15 -4 -15 5 0 2 -5 -6 -10 -11 -7 -5 -8 20 -4
41 8 55 18 46 33 -10 16 -41 13 -56 -4z"/>
<path d="M5173 5931 c-18 -8 -33 -21 -33 -28 0 -11 6 -11 35 1 40 17 72 35 65
36 -25 6 -40 4 -67 -9z"/>
<path d="M10860 5937 c0 -19 144 -57 215 -57 47 0 -46 36 -115 45 -14 2 -42 6
-62 10 -21 4 -38 5 -38 2z"/>
<path d="M10765 5920 c3 -5 13 -10 21 -10 8 0 12 5 9 10 -3 6 -13 10 -21 10
-8 0 -12 -4 -9 -10z"/>
<path d="M6034 5885 c-10 -8 -14 -15 -8 -15 6 0 17 7 24 15 16 19 9 19 -16 0z"/>
<path d="M11425 5890 c17 -4 73 -16 125 -24 52 -9 115 -21 140 -26 25 -5 68
-12 95 -15 28 -3 64 -11 82 -17 22 -8 39 -8 55 -1 l23 10 -23 12 c-12 7 -80
19 -150 27 -70 8 -149 18 -177 23 -71 13 -208 22 -170 11z"/>
<path d="M5060 5870 c0 -5 4 -10 9 -10 6 0 13 5 16 10 3 6 -1 10 -9 10 -9 0
-16 -4 -16 -10z"/>
<path d="M10820 5858 c0 -3 21 -22 46 -43 39 -32 53 -38 105 -41 32 -2 59 -2
59 0 0 1 -24 19 -54 40 -38 26 -69 38 -105 43 -28 3 -51 3 -51 1z"/>
<path d="M11328 5843 c6 -2 18 -2 25 0 6 3 1 5 -13 5 -14 0 -19 -2 -12 -5z"/>
<path d="M4880 5830 c0 -5 -6 -10 -12 -10 -7 0 -19 -4 -26 -8 -17 -12 -4 -45
15 -37 10 3 13 1 10 -9 -5 -12 -1 -13 16 -7 50 20 136 62 141 69 3 5 -29 9
-70 11 -46 1 -74 -2 -74 -9z"/>
<path d="M11019 5806 c36 -38 76 -55 138 -61 21 -2 50 -6 66 -10 17 -5 27 -3
27 4 0 6 -5 11 -11 11 -6 0 -48 18 -92 39 -45 22 -100 43 -122 47 l-40 6 34
-36z"/>
<path d="M6649 5798 c-7 -12 -21 -30 -33 -39 -31 -25 -10 -36 29 -15 40 22 50
42 30 62 -12 13 -16 12 -26 -8z"/>
<path d="M11185 5796 c11 -9 25 -19 31 -24 6 -5 21 -13 35 -17 13 -4 27 -12
30 -17 8 -13 139 -48 179 -48 19 0 51 -5 70 -10 67 -20 146 -22 163 -5 20 20
30 19 77 -5 44 -23 47 -21 24 15 -19 30 -83 50 -202 64 -46 6 -88 13 -93 17
-6 3 -51 8 -101 10 -50 2 -95 7 -101 11 -7 4 -18 8 -27 8 -8 1 -35 5 -60 9
-42 6 -43 6 -25 -8z m242 -57 c41 -12 56 -32 16 -23 -33 8 -83 32 -83 40 0 4
8 3 18 -1 9 -4 31 -11 49 -16z"/>
<path d="M4798 5768 c6 -8 9 -17 6 -20 -2 -3 2 -8 11 -12 13 -4 16 -1 13 16
-2 13 -11 24 -23 27 -16 3 -17 1 -7 -11z"/>
<path d="M4700 5741 c-8 -6 -17 -8 -21 -5 -4 2 -10 0 -14 -6 -4 -6 -11 -8 -16
-5 -5 4 -9 1 -9 -4 0 -11 5 -13 51 -16 20 -2 25 3 25 22 0 12 0 23 0 23 -1 0
-8 -4 -16 -9z"/>
<path d="M11125 5684 c24 -25 34 -64 17 -64 -4 0 -18 7 -31 16 -14 11 -33 14
-52 10 -20 -4 -40 1 -61 13 -27 17 -33 18 -46 5 -17 -18 -20 -15 51 -44 31
-13 57 -26 57 -29 0 -3 10 -7 23 -8 12 -1 47 -6 77 -11 30 -5 57 -7 60 -5 3 3
-6 13 -19 24 -13 11 -21 22 -18 25 3 3 23 -12 44 -34 31 -32 51 -42 99 -52 32
-6 75 -15 94 -20 21 -6 38 -6 44 0 6 6 4 11 -5 13 -8 2 -31 10 -52 16 -20 7
-50 15 -65 17 -15 3 -36 11 -47 18 -12 8 -30 16 -40 19 -16 4 -14 5 6 6 15 0
46 -8 70 -19 24 -11 54 -20 67 -20 19 0 155 -76 234 -131 15 -11 33 -19 41
-19 30 0 68 -25 63 -43 -3 -12 20 -36 80 -85 47 -37 90 -69 96 -71 14 -5 -51
80 -76 98 -18 14 -18 15 -2 21 15 5 5 15 -46 48 -35 23 -70 42 -77 42 -7 0
-11 6 -8 13 3 8 -7 13 -31 15 -19 1 -58 16 -86 33 -105 63 -161 99 -151 99 33
-1 185 -74 185 -90 0 -6 5 -10 11 -10 5 0 8 4 5 9 -11 18 89 -10 140 -40 l54
-30 0 26 c0 16 -7 28 -17 31 -35 10 -187 89 -213 111 -36 30 -67 41 -148 53
-37 5 -93 15 -125 21 -32 7 -60 9 -63 6 -3 -3 11 -15 33 -27 21 -11 29 -19 18
-16 -42 10 -95 33 -112 48 -10 9 -29 19 -43 23 -14 3 -33 9 -43 12 -13 3 -12
-2 8 -23z m235 -74 c0 -5 -2 -10 -4 -10 -3 0 -8 5 -11 10 -3 6 -1 10 4 10 6 0
11 -4 11 -10z"/>
<path d="M10810 5621 c0 -13 28 -33 41 -29 6 2 0 12 -15 21 -14 10 -26 13 -26
8z"/>
<path d="M10900 5590 c12 -22 68 -55 78 -46 9 10 -50 66 -70 66 -16 0 -17 -3
-8 -20z"/>
<path d="M5350 5590 c-9 -6 -10 -10 -3 -10 6 0 15 5 18 10 8 12 4 12 -15 0z"/>
<path d="M11670 5582 c0 -10 43 -42 56 -42 10 0 -17 30 -38 41 -10 6 -18 6
-18 1z"/>
<path d="M5270 5560 c-24 -9 -46 -22 -48 -29 -2 -6 -1 -11 2 -11 11 0 106 50
106 55 0 7 -10 5 -60 -15z"/>
<path d="M6203 5533 c-3 -7 -9 -11 -13 -8 -12 7 -41 -26 -68 -76 -28 -51 -28
-76 -1 -84 25 -8 40 9 75 82 13 28 31 57 39 63 8 7 15 18 15 24 0 16 -41 15
-47 -1z"/>
<path d="M10740 5543 c1 -11 60 -66 93 -87 28 -17 29 -17 22 3 -8 25 -2 26 32
4 18 -12 25 -13 22 -4 -5 14 -25 26 -107 65 -59 28 -62 29 -62 19z"/>
<path d="M5510 5485 c0 -16 16 -20 24 -6 3 5 -1 11 -9 15 -9 3 -15 0 -15 -9z"/>
<path d="M6730 5478 c0 -10 7 -18 15 -18 8 0 15 8 15 18 0 10 -7 19 -15 19 -8
0 -15 -9 -15 -19z"/>
<path d="M11425 5477 c-9 -5 -30 -6 -46 -3 -42 8 -36 -8 16 -41 24 -15 44 -33
45 -40 1 -31 233 -210 261 -201 6 2 -8 25 -31 51 -24 26 -41 50 -39 52 3 2 32
-14 66 -35 33 -22 73 -41 87 -44 14 -3 30 -7 36 -11 5 -3 10 -1 10 4 0 18
-100 111 -119 111 -23 0 -52 22 -54 42 -4 21 -26 48 -41 48 -6 0 -27 10 -46
23 -50 33 -124 56 -145 44z"/>
<path d="M6040 5470 c0 -5 5 -10 10 -10 6 0 10 5 10 10 0 6 -4 10 -10 10 -5 0
-10 -4 -10 -10z"/>
<path d="M6708 5455 c-3 -14 -2 -27 1 -30 4 -2 8 10 9 26 3 36 -4 38 -10 4z"/>
<path d="M11243 5473 c-31 -6 -29 -16 7 -46 17 -14 30 -30 30 -35 0 -13 36
-36 78 -50 30 -10 33 -9 30 6 -2 9 -27 35 -56 56 -44 33 -51 41 -36 46 17 6
17 8 -3 18 -12 7 -23 11 -25 11 -2 -1 -13 -4 -25 -6z"/>
<path d="M6327 5363 c-4 -3 -7 -13 -7 -21 0 -12 3 -12 15 -2 8 7 15 16 15 21
0 11 -14 12 -23 2z"/>
<path d="M6690 5359 c0 -5 5 -7 10 -4 6 3 10 8 10 11 0 2 -4 4 -10 4 -5 0 -10
-5 -10 -11z"/>
<path d="M11175 5335 c26 -21 65 -34 65 -21 0 7 -71 46 -83 46 -7 -1 2 -12 18
-25z"/>
<path d="M11430 5325 c14 -17 98 -65 113 -65 6 0 -17 18 -51 40 -65 42 -82 49
-62 25z"/>
<path d="M11086 5290 c12 -12 27 -21 33 -19 7 3 -3 13 -21 23 l-33 19 21 -23z"/>
<path d="M11312 5285 c9 -9 108 -55 108 -50 0 2 -15 12 -32 23 -35 21 -88 40
-76 27z"/>
<path d="M11300 5232 c0 -10 90 -46 97 -38 3 3 -6 10 -21 16 -14 5 -37 14 -51
20 -14 5 -25 6 -25 2z"/>
<path d="M11504 5187 c10 -7 31 -22 46 -34 14 -12 40 -25 56 -28 27 -7 28 -6
9 8 -27 20 -86 52 -110 60 -19 6 -19 6 -1 -6z"/>
<path d="M11220 5171 c0 -5 9 -11 21 -14 16 -4 18 -3 8 9 -13 16 -29 19 -29 5z"/>
<path d="M3490 3669 c-14 -4 -42 -7 -62 -8 -59 -2 -53 -19 10 -25 68 -7 134 4
140 23 3 8 -1 12 -9 9 -8 -3 -23 -2 -34 2 -11 4 -31 3 -45 -1z"/>
<path d="M3600 3661 c0 -13 6 -18 23 -16 34 4 34 4 41 20 4 12 -3 15 -29 15
-27 0 -35 -4 -35 -19z"/>
<path d="M3307 2374 c-3 -3 -25 -8 -48 -10 -54 -5 -112 -34 -115 -56 -3 -22 3
-22 63 -2 68 22 108 41 123 59 10 12 10 15 -2 15 -8 0 -17 -3 -21 -6z"/>
<path d="M2975 2320 c-13 -6 -15 -9 -5 -9 8 0 22 4 30 9 18 12 2 12 -25 0z"/>
<path d="M3090 2290 c0 -5 7 -10 15 -10 8 0 15 5 15 10 0 6 -7 10 -15 10 -8 0
-15 -4 -15 -10z"/>
<path d="M2845 1840 c-8 -13 2 -29 18 -26 32 6 57 18 52 27 -8 12 -62 12 -70
-1z"/>
<path d="M2745 1680 c-6 -20 -27 -22 -55 -6 -12 7 -13 6 -2 -5 18 -20 15 -45
-10 -62 -16 -11 -18 -16 -8 -16 8 0 25 10 37 23 17 18 19 26 10 35 -7 7 2 5
19 -4 40 -19 64 -12 56 18 -9 38 -37 48 -47 17z"/>
<path d="M2590 1504 c0 -8 5 -12 10 -9 6 3 10 10 10 16 0 5 -4 9 -10 9 -5 0
-10 -7 -10 -16z"/>
<path d="M2814 1440 c-23 -9 -41 -30 -27 -30 23 1 52 14 57 26 6 16 0 17 -30
4z"/>
<path d="M3003 1414 c-18 -8 -33 -18 -33 -22 0 -5 -6 -9 -12 -10 -7 -1 -22 -3
-34 -4 -27 -4 -95 -50 -91 -63 5 -14 47 -19 47 -6 0 6 9 11 21 11 23 0 94 47
122 80 23 28 20 30 -20 14z"/>
<path d="M3120 1362 c0 -4 -19 -16 -41 -27 -23 -10 -60 -36 -84 -57 -24 -21
-53 -38 -64 -38 -12 0 -39 -9 -61 -20 -22 -11 -46 -20 -54 -20 -8 0 -21 -8
-28 -17 -7 -10 -40 -40 -73 -67 -100 -83 -116 -106 -91 -132 20 -19 38 -18 34
4 -4 26 10 42 38 42 13 0 24 5 24 10 0 6 5 10 12 10 9 0 9 -3 0 -12 -7 -7 -12
-22 -12 -34 0 -32 45 -38 75 -10 13 11 39 32 57 46 18 14 47 40 66 58 19 17
42 32 53 32 11 0 19 7 19 18 1 18 23 52 34 52 13 0 36 28 36 43 0 23 46 70 60
62 8 -5 11 -3 8 6 -3 8 1 21 9 30 12 14 12 17 -2 22 -8 4 -15 3 -15 -1z"/>
<path d="M2510 1300 c-9 -17 -8 -20 7 -20 10 0 24 9 31 20 11 17 10 20 -8 20
-10 0 -24 -9 -30 -20z"/>
<path d="M2467 1243 c-4 -3 -7 -13 -7 -21 0 -12 3 -12 15 -2 8 7 15 16 15 21
0 11 -14 12 -23 2z"/>
<path d="M2593 1174 c-3 -9 -15 -20 -27 -24 -21 -9 -21 -9 2 -9 12 -1 22 4 22
10 0 6 6 9 13 6 7 -3 18 3 24 12 9 14 7 17 -9 18 -10 1 -22 -5 -25 -13z"/>
<path d="M2969 1046 c-7 -14 -20 -26 -29 -26 -10 0 -23 -7 -30 -16 -7 -8 -23
-14 -35 -12 -31 4 -95 -42 -95 -69 0 -13 -8 -24 -20 -28 -11 -4 -18 -10 -15
-15 7 -11 -74 -54 -83 -45 -4 3 0 10 7 14 7 5 15 21 16 36 3 20 0 25 -12 21
-8 -3 -26 -9 -39 -12 -13 -3 -24 -12 -24 -20 0 -8 -6 -14 -14 -14 -7 0 -20 -8
-27 -17 -8 -9 -9 -14 -3 -10 7 4 18 0 25 -9 11 -14 9 -19 -11 -35 -14 -10 -31
-19 -37 -19 -7 0 -13 -5 -13 -11 0 -5 -5 -7 -11 -3 -6 3 -9 15 -6 25 3 12 0
19 -9 19 -24 0 -114 -49 -114 -63 0 -8 4 -7 10 3 9 14 14 7 11 -13 -1 -4 7 -3
17 2 10 5 24 6 32 1 8 -5 18 -6 22 -4 4 3 8 0 8 -5 0 -6 -7 -11 -15 -11 -8 0
-15 -4 -15 -10 0 -5 5 -10 10 -10 6 0 10 -7 10 -15 0 -8 8 -24 17 -34 15 -18
19 -19 45 -5 38 20 36 35 -3 24 -25 -7 -29 -7 -20 4 6 7 28 18 50 24 21 7 44
19 51 27 7 8 18 15 26 15 7 0 17 6 21 14 4 7 23 21 40 30 18 9 55 37 83 61 28
25 54 45 59 45 5 0 26 18 47 40 22 22 42 40 47 40 16 0 67 66 64 84 -3 30 -25
31 -38 2z"/>
<path d="M2545 1030 c-3 -5 -1 -10 4 -10 6 0 11 5 11 10 0 6 -2 10 -4 10 -3 0
-8 -4 -11 -10z"/>
<path d="M2510 1010 c0 -5 5 -10 10 -10 6 0 10 5 10 10 0 6 -4 10 -10 10 -5 0
-10 -4 -10 -10z"/>
<path d="M2559 1000 c-2 -38 -9 -56 -28 -69 -42 -28 -20 -60 25 -36 30 15 42
55 18 55 -14 0 -15 20 -2 30 4 3 3 12 -2 20 -9 13 -10 13 -11 0z"/>
<path d="M2466 871 c-4 -7 -5 -15 -2 -18 9 -9 19 4 14 18 -4 11 -6 11 -12 0z"/>
<path d="M2855 860 c-3 -6 1 -7 9 -4 18 7 21 14 7 14 -6 0 -13 -4 -16 -10z"/>
<path d="M3645 754 c-14 -15 -25 -34 -25 -43 0 -10 -5 -22 -12 -29 -6 -6 -9
-14 -6 -17 3 -3 13 10 22 29 9 19 21 38 26 41 12 8 33 45 25 45 -3 0 -17 -12
-30 -26z"/>
<path d="M3134 675 c-16 -12 -16 -14 -3 -15 9 0 22 7 29 15 16 19 0 19 -26 0z"/>
<path d="M2410 660 c-14 -11 -20 -20 -15 -21 6 0 17 -2 26 -4 24 -4 43 11 36
29 -8 21 -16 20 -47 -4z"/>
<path d="M2630 624 c-25 -13 -50 -24 -57 -24 -7 0 -13 -4 -13 -9 0 -5 -12 -11
-27 -13 -36 -4 -59 -48 -43 -78 9 -17 14 -19 26 -10 7 7 21 10 29 6 8 -3 15
-2 15 3 0 5 14 14 30 21 17 7 30 19 30 26 0 8 4 14 8 14 5 0 23 18 40 39 39
49 24 58 -38 25z"/>
<path d="M2305 620 c-3 -5 1 -10 9 -10 9 0 16 5 16 10 0 6 -4 10 -9 10 -6 0
-13 -4 -16 -10z"/>
<path d="M2465 610 c-3 -5 1 -10 10 -10 9 0 13 5 10 10 -3 6 -8 10 -10 10 -2
0 -7 -4 -10 -10z"/>
<path d="M3423 590 c-18 -17 -39 -30 -47 -30 -9 0 -16 -7 -16 -15 0 -8 -4 -15
-10 -15 -5 0 -10 -6 -10 -14 0 -8 -12 -17 -27 -21 -26 -6 -104 -79 -123 -116
-6 -10 -20 -19 -30 -19 -14 0 -20 -7 -20 -21 0 -15 -5 -19 -16 -15 -12 5 -14
1 -9 -15 9 -28 -2 -69 -20 -69 -15 0 -55 -38 -55 -53 0 -5 6 -7 13 -4 20 8 14
-33 -6 -45 -13 -7 -19 -5 -23 6 -7 17 -49 22 -59 7 -3 -5 -19 -12 -35 -16 -29
-6 -50 -29 -47 -50 1 -5 -11 -16 -26 -23 -16 -8 -31 -20 -34 -28 -3 -8 -14
-14 -24 -14 -10 0 -19 -5 -19 -10 0 -7 107 -10 325 -10 283 1 360 7 314 22 -9
3 -8 10 1 25 8 12 19 19 27 16 7 -3 17 6 22 20 5 14 14 28 19 31 13 8 10 65
-4 74 -5 4 -20 21 -32 38 -23 34 -24 33 31 94 35 39 98 158 77 145 -32 -20 -8
73 25 97 6 4 6 8 1 8 -5 0 -3 7 4 15 22 27 2 28 -24 2 -17 -17 -26 -37 -26
-57 0 -16 -5 -30 -12 -30 -6 0 -9 -3 -5 -6 3 -3 -7 -17 -24 -31 -16 -14 -29
-31 -29 -39 0 -8 -4 -14 -10 -14 -5 0 -12 -15 -16 -34 -5 -30 -29 -54 -41 -42
-2 2 2 24 10 48 15 42 15 43 -6 52 -12 6 -24 11 -26 13 -3 2 11 20 30 41 43
47 59 75 59 107 0 32 -8 31 -47 -5z m-26 -302 c-3 -7 -5 -2 -5 12 0 14 2 19 5
13 2 -7 2 -19 0 -25z m-250 -50 c-9 -5 -21 -16 -26 -26 -6 -9 -11 -12 -11 -7
0 17 34 54 44 48 4 -3 1 -10 -7 -15z m220 -70 c-3 -8 -6 -5 -6 6 -1 11 2 17 5
13 3 -3 4 -12 1 -19z m-21 -23 c-4 -14 -13 -25 -21 -25 -12 0 -11 5 3 29 19
34 27 33 18 -4z"/>
<path d="M3500 605 c-8 -9 -8 -15 -2 -15 12 0 26 19 19 26 -2 2 -10 -2 -17
-11z"/>
<path d="M3045 601 c-23 -10 -63 -51 -49 -51 11 0 84 48 84 55 0 7 -11 5 -35
-4z"/>
<path d="M3315 570 c-10 -11 -15 -20 -11 -20 4 0 16 9 28 20 12 11 17 20 11
20 -5 0 -18 -9 -28 -20z"/>
<path d="M2896 559 c-31 -24 -34 -39 -6 -32 15 4 20 0 21 -13 0 -14 2 -15 6
-4 3 8 12 23 20 32 14 16 11 38 -6 38 -5 0 -20 -9 -35 -21z"/>
<path d="M3606 515 c-9 -14 -13 -25 -9 -25 12 1 46 50 35 50 -6 0 -17 -11 -26
-25z"/>
<path d="M2553 475 c-33 -36 -69 -55 -107 -55 -13 0 -36 -11 -51 -24 l-28 -24
29 -27 c39 -36 77 -31 126 18 21 21 43 35 49 32 6 -5 6 -12 -3 -22 -7 -9 -13
-28 -13 -42 0 -16 -8 -29 -22 -36 -12 -7 -32 -24 -43 -38 -12 -15 -27 -27 -33
-27 -20 0 -60 -49 -53 -65 3 -8 16 -15 28 -15 13 -1 34 -10 47 -21 l24 -20
-20 -22 c-23 -25 -43 -60 -43 -76 0 -16 117 -14 123 2 4 9 8 9 15 -2 8 -11 18
-10 57 9 35 17 43 25 33 32 -9 6 -6 7 9 3 19 -5 36 6 90 59 37 36 70 66 73 66
15 0 56 47 77 85 11 22 26 39 33 37 6 -1 9 1 6 6 -2 4 -1 14 5 22 7 13 9 13 9
1 0 -11 6 -9 23 6 12 11 28 22 35 24 9 3 7 11 -8 27 -12 12 -18 28 -14 35 4 6
-2 3 -14 -7 -22 -19 -22 -19 -57 19 -25 27 -38 35 -47 28 -7 -6 -25 -13 -40
-17 -15 -3 -42 -19 -60 -35 -33 -28 -92 -54 -102 -44 -8 9 25 53 40 53 7 0 21
14 30 31 16 31 16 32 -6 26 -12 -3 -34 -1 -49 5 -14 7 -37 13 -51 14 -14 1
-34 5 -45 8 -15 5 -29 -3 -52 -29z m433 -113 c-15 -15 -16 -15 -16 5 0 12 6
23 13 26 19 6 21 -13 3 -31z m-327 11 c-17 -20 -79 -47 -87 -38 -9 9 39 35 97
54 2 0 -3 -6 -10 -16z"/>
<path d="M3121 444 c0 -11 3 -14 6 -6 3 7 2 16 -1 19 -3 4 -6 -2 -5 -13z"/>
<path d="M2332 281 c-11 -7 -11 -9 1 -14 16 -6 27 0 27 15 0 10 -11 10 -28 -1z"/>
<path d="M3455 250 c-3 -5 -1 -10 4 -10 6 0 11 5 11 10 0 6 -2 10 -4 10 -3 0
-8 -4 -11 -10z"/>
<path d="M3026 167 c3 -10 9 -15 12 -12 3 3 0 11 -7 18 -10 9 -11 8 -5 -6z"/>
<path d="M3691 72 c-6 -11 -11 -29 -11 -39 1 -17 1 -17 14 0 10 13 15 14 18 6
3 -8 7 -9 10 -3 4 5 0 20 -7 33 -12 24 -13 24 -24 3z"/>
<path d="M4030 10 c0 -5 7 -10 15 -10 8 0 15 5 15 10 0 6 -7 10 -15 10 -8 0
-15 -4 -15 -10z"/>
</g>
</svg>
